%TF.GenerationSoftware,KiCad,Pcbnew,9.0.5*%
%TF.CreationDate,2025-12-10T21:52:02+05:30*%
%TF.ProjectId,macropad,6d616372-6f70-4616-942e-6b696361645f,rev?*%
%TF.SameCoordinates,Original*%
%TF.FileFunction,Legend,Top*%
%TF.FilePolarity,Positive*%
%FSLAX46Y46*%
G04 Gerber Fmt 4.6, Leading zero omitted, Abs format (unit mm)*
G04 Created by KiCad (PCBNEW 9.0.5) date 2025-12-10 21:52:02*
%MOMM*%
%LPD*%
G01*
G04 APERTURE LIST*
%ADD10C,0.125000*%
%ADD11C,0.600000*%
%ADD12C,0.187500*%
%ADD13C,0.150000*%
%ADD14C,0.101600*%
%ADD15C,0.120000*%
%ADD16C,0.000000*%
%ADD17C,0.040000*%
%ADD18C,0.127000*%
%ADD19C,0.100000*%
%ADD20C,0.504000*%
G04 APERTURE END LIST*
D10*
X191364119Y-56681759D02*
X191316500Y-56634140D01*
X191316500Y-56634140D02*
X191268880Y-56491283D01*
X191268880Y-56491283D02*
X191268880Y-56396045D01*
X191268880Y-56396045D02*
X191316500Y-56253188D01*
X191316500Y-56253188D02*
X191411738Y-56157950D01*
X191411738Y-56157950D02*
X191506976Y-56110331D01*
X191506976Y-56110331D02*
X191697452Y-56062712D01*
X191697452Y-56062712D02*
X191840309Y-56062712D01*
X191840309Y-56062712D02*
X192030785Y-56110331D01*
X192030785Y-56110331D02*
X192126023Y-56157950D01*
X192126023Y-56157950D02*
X192221261Y-56253188D01*
X192221261Y-56253188D02*
X192268880Y-56396045D01*
X192268880Y-56396045D02*
X192268880Y-56491283D01*
X192268880Y-56491283D02*
X192221261Y-56634140D01*
X192221261Y-56634140D02*
X192173642Y-56681759D01*
X191268880Y-57586521D02*
X191268880Y-57110331D01*
X191268880Y-57110331D02*
X192268880Y-57110331D01*
X192268880Y-58110331D02*
X192268880Y-58300807D01*
X192268880Y-58300807D02*
X192221261Y-58396045D01*
X192221261Y-58396045D02*
X192126023Y-58491283D01*
X192126023Y-58491283D02*
X191935547Y-58538902D01*
X191935547Y-58538902D02*
X191602214Y-58538902D01*
X191602214Y-58538902D02*
X191411738Y-58491283D01*
X191411738Y-58491283D02*
X191316500Y-58396045D01*
X191316500Y-58396045D02*
X191268880Y-58300807D01*
X191268880Y-58300807D02*
X191268880Y-58110331D01*
X191268880Y-58110331D02*
X191316500Y-58015093D01*
X191316500Y-58015093D02*
X191411738Y-57919855D01*
X191411738Y-57919855D02*
X191602214Y-57872236D01*
X191602214Y-57872236D02*
X191935547Y-57872236D01*
X191935547Y-57872236D02*
X192126023Y-57919855D01*
X192126023Y-57919855D02*
X192221261Y-58015093D01*
X192221261Y-58015093D02*
X192268880Y-58110331D01*
X192268880Y-58967474D02*
X191459357Y-58967474D01*
X191459357Y-58967474D02*
X191364119Y-59015093D01*
X191364119Y-59015093D02*
X191316500Y-59062712D01*
X191316500Y-59062712D02*
X191268880Y-59157950D01*
X191268880Y-59157950D02*
X191268880Y-59348426D01*
X191268880Y-59348426D02*
X191316500Y-59443664D01*
X191316500Y-59443664D02*
X191364119Y-59491283D01*
X191364119Y-59491283D02*
X191459357Y-59538902D01*
X191459357Y-59538902D02*
X192268880Y-59538902D01*
X191268880Y-60015093D02*
X192268880Y-60015093D01*
X192268880Y-60015093D02*
X192268880Y-60253188D01*
X192268880Y-60253188D02*
X192221261Y-60396045D01*
X192221261Y-60396045D02*
X192126023Y-60491283D01*
X192126023Y-60491283D02*
X192030785Y-60538902D01*
X192030785Y-60538902D02*
X191840309Y-60586521D01*
X191840309Y-60586521D02*
X191697452Y-60586521D01*
X191697452Y-60586521D02*
X191506976Y-60538902D01*
X191506976Y-60538902D02*
X191411738Y-60491283D01*
X191411738Y-60491283D02*
X191316500Y-60396045D01*
X191316500Y-60396045D02*
X191268880Y-60253188D01*
X191268880Y-60253188D02*
X191268880Y-60015093D01*
D11*
X255109021Y-73622665D02*
X255109021Y-70622665D01*
X255109021Y-72051236D02*
X256823307Y-72051236D01*
X256823307Y-73622665D02*
X256823307Y-70622665D01*
X254966164Y-77595354D02*
X256394736Y-77595354D01*
X254680450Y-78452497D02*
X255680450Y-75452497D01*
X255680450Y-75452497D02*
X256680450Y-78452497D01*
X256823307Y-82996614D02*
X256680450Y-83139472D01*
X256680450Y-83139472D02*
X256251878Y-83282329D01*
X256251878Y-83282329D02*
X255966164Y-83282329D01*
X255966164Y-83282329D02*
X255537593Y-83139472D01*
X255537593Y-83139472D02*
X255251878Y-82853757D01*
X255251878Y-82853757D02*
X255109021Y-82568043D01*
X255109021Y-82568043D02*
X254966164Y-81996614D01*
X254966164Y-81996614D02*
X254966164Y-81568043D01*
X254966164Y-81568043D02*
X255109021Y-80996614D01*
X255109021Y-80996614D02*
X255251878Y-80710900D01*
X255251878Y-80710900D02*
X255537593Y-80425186D01*
X255537593Y-80425186D02*
X255966164Y-80282329D01*
X255966164Y-80282329D02*
X256251878Y-80282329D01*
X256251878Y-80282329D02*
X256680450Y-80425186D01*
X256680450Y-80425186D02*
X256823307Y-80568043D01*
X255109021Y-88112161D02*
X255109021Y-85112161D01*
X256823307Y-88112161D02*
X255537593Y-86397875D01*
X256823307Y-85112161D02*
X255109021Y-86826446D01*
X255109021Y-92941993D02*
X255109021Y-89941993D01*
X255109021Y-89941993D02*
X256251878Y-89941993D01*
X256251878Y-89941993D02*
X256537593Y-90084850D01*
X256537593Y-90084850D02*
X256680450Y-90227707D01*
X256680450Y-90227707D02*
X256823307Y-90513421D01*
X256823307Y-90513421D02*
X256823307Y-90941993D01*
X256823307Y-90941993D02*
X256680450Y-91227707D01*
X256680450Y-91227707D02*
X256537593Y-91370564D01*
X256537593Y-91370564D02*
X256251878Y-91513421D01*
X256251878Y-91513421D02*
X255109021Y-91513421D01*
X254966164Y-96914682D02*
X256394736Y-96914682D01*
X254680450Y-97771825D02*
X255680450Y-94771825D01*
X255680450Y-94771825D02*
X256680450Y-97771825D01*
X255109021Y-102601657D02*
X255109021Y-99601657D01*
X255109021Y-99601657D02*
X255823307Y-99601657D01*
X255823307Y-99601657D02*
X256251878Y-99744514D01*
X256251878Y-99744514D02*
X256537593Y-100030228D01*
X256537593Y-100030228D02*
X256680450Y-100315942D01*
X256680450Y-100315942D02*
X256823307Y-100887371D01*
X256823307Y-100887371D02*
X256823307Y-101315942D01*
X256823307Y-101315942D02*
X256680450Y-101887371D01*
X256680450Y-101887371D02*
X256537593Y-102173085D01*
X256537593Y-102173085D02*
X256251878Y-102458800D01*
X256251878Y-102458800D02*
X255823307Y-102601657D01*
X255823307Y-102601657D02*
X255109021Y-102601657D01*
D12*
X229193321Y-60664783D02*
X229193321Y-59950497D01*
X229193321Y-59950497D02*
X230693321Y-59950497D01*
X229621892Y-61093355D02*
X229621892Y-61807641D01*
X229193321Y-60950498D02*
X230693321Y-61450498D01*
X230693321Y-61450498D02*
X229193321Y-61950498D01*
X229193321Y-63164783D02*
X229193321Y-62450497D01*
X229193321Y-62450497D02*
X230693321Y-62450497D01*
X229193321Y-63664783D02*
X230693321Y-63664783D01*
X230693321Y-64164784D02*
X230693321Y-65021927D01*
X229193321Y-64593355D02*
X230693321Y-64593355D01*
X229336178Y-65521926D02*
X229264750Y-65593355D01*
X229264750Y-65593355D02*
X229193321Y-65521926D01*
X229193321Y-65521926D02*
X229264750Y-65450498D01*
X229264750Y-65450498D02*
X229336178Y-65521926D01*
X229336178Y-65521926D02*
X229193321Y-65521926D01*
X229764750Y-65521926D02*
X230621892Y-65450498D01*
X230621892Y-65450498D02*
X230693321Y-65521926D01*
X230693321Y-65521926D02*
X230621892Y-65593355D01*
X230621892Y-65593355D02*
X229764750Y-65521926D01*
X229764750Y-65521926D02*
X230693321Y-65521926D01*
X229336178Y-66236212D02*
X229264750Y-66307641D01*
X229264750Y-66307641D02*
X229193321Y-66236212D01*
X229193321Y-66236212D02*
X229264750Y-66164784D01*
X229264750Y-66164784D02*
X229336178Y-66236212D01*
X229336178Y-66236212D02*
X229193321Y-66236212D01*
X229764750Y-66236212D02*
X230621892Y-66164784D01*
X230621892Y-66164784D02*
X230693321Y-66236212D01*
X230693321Y-66236212D02*
X230621892Y-66307641D01*
X230621892Y-66307641D02*
X229764750Y-66236212D01*
X229764750Y-66236212D02*
X230693321Y-66236212D01*
D13*
X197236667Y-107177200D02*
X197379524Y-107224819D01*
X197379524Y-107224819D02*
X197617619Y-107224819D01*
X197617619Y-107224819D02*
X197712857Y-107177200D01*
X197712857Y-107177200D02*
X197760476Y-107129580D01*
X197760476Y-107129580D02*
X197808095Y-107034342D01*
X197808095Y-107034342D02*
X197808095Y-106939104D01*
X197808095Y-106939104D02*
X197760476Y-106843866D01*
X197760476Y-106843866D02*
X197712857Y-106796247D01*
X197712857Y-106796247D02*
X197617619Y-106748628D01*
X197617619Y-106748628D02*
X197427143Y-106701009D01*
X197427143Y-106701009D02*
X197331905Y-106653390D01*
X197331905Y-106653390D02*
X197284286Y-106605771D01*
X197284286Y-106605771D02*
X197236667Y-106510533D01*
X197236667Y-106510533D02*
X197236667Y-106415295D01*
X197236667Y-106415295D02*
X197284286Y-106320057D01*
X197284286Y-106320057D02*
X197331905Y-106272438D01*
X197331905Y-106272438D02*
X197427143Y-106224819D01*
X197427143Y-106224819D02*
X197665238Y-106224819D01*
X197665238Y-106224819D02*
X197808095Y-106272438D01*
X198141429Y-106224819D02*
X198379524Y-107224819D01*
X198379524Y-107224819D02*
X198570000Y-106510533D01*
X198570000Y-106510533D02*
X198760476Y-107224819D01*
X198760476Y-107224819D02*
X198998572Y-106224819D01*
X199855714Y-106224819D02*
X199379524Y-106224819D01*
X199379524Y-106224819D02*
X199331905Y-106701009D01*
X199331905Y-106701009D02*
X199379524Y-106653390D01*
X199379524Y-106653390D02*
X199474762Y-106605771D01*
X199474762Y-106605771D02*
X199712857Y-106605771D01*
X199712857Y-106605771D02*
X199808095Y-106653390D01*
X199808095Y-106653390D02*
X199855714Y-106701009D01*
X199855714Y-106701009D02*
X199903333Y-106796247D01*
X199903333Y-106796247D02*
X199903333Y-107034342D01*
X199903333Y-107034342D02*
X199855714Y-107129580D01*
X199855714Y-107129580D02*
X199808095Y-107177200D01*
X199808095Y-107177200D02*
X199712857Y-107224819D01*
X199712857Y-107224819D02*
X199474762Y-107224819D01*
X199474762Y-107224819D02*
X199379524Y-107177200D01*
X199379524Y-107177200D02*
X199331905Y-107129580D01*
X212004819Y-60208094D02*
X211004819Y-60208094D01*
X211004819Y-60208094D02*
X211004819Y-59969999D01*
X211004819Y-59969999D02*
X211052438Y-59827142D01*
X211052438Y-59827142D02*
X211147676Y-59731904D01*
X211147676Y-59731904D02*
X211242914Y-59684285D01*
X211242914Y-59684285D02*
X211433390Y-59636666D01*
X211433390Y-59636666D02*
X211576247Y-59636666D01*
X211576247Y-59636666D02*
X211766723Y-59684285D01*
X211766723Y-59684285D02*
X211861961Y-59731904D01*
X211861961Y-59731904D02*
X211957200Y-59827142D01*
X211957200Y-59827142D02*
X212004819Y-59969999D01*
X212004819Y-59969999D02*
X212004819Y-60208094D01*
X211004819Y-59303332D02*
X211004819Y-58684285D01*
X211004819Y-58684285D02*
X211385771Y-59017618D01*
X211385771Y-59017618D02*
X211385771Y-58874761D01*
X211385771Y-58874761D02*
X211433390Y-58779523D01*
X211433390Y-58779523D02*
X211481009Y-58731904D01*
X211481009Y-58731904D02*
X211576247Y-58684285D01*
X211576247Y-58684285D02*
X211814342Y-58684285D01*
X211814342Y-58684285D02*
X211909580Y-58731904D01*
X211909580Y-58731904D02*
X211957200Y-58779523D01*
X211957200Y-58779523D02*
X212004819Y-58874761D01*
X212004819Y-58874761D02*
X212004819Y-59160475D01*
X212004819Y-59160475D02*
X211957200Y-59255713D01*
X211957200Y-59255713D02*
X211909580Y-59303332D01*
X209312704Y-56498571D02*
X209312704Y-56041428D01*
X209312704Y-56270000D02*
X210112704Y-56270000D01*
X210112704Y-56270000D02*
X209998419Y-56193809D01*
X209998419Y-56193809D02*
X209922228Y-56117619D01*
X209922228Y-56117619D02*
X209884133Y-56041428D01*
X205224819Y-60208094D02*
X204224819Y-60208094D01*
X204224819Y-60208094D02*
X204224819Y-59969999D01*
X204224819Y-59969999D02*
X204272438Y-59827142D01*
X204272438Y-59827142D02*
X204367676Y-59731904D01*
X204367676Y-59731904D02*
X204462914Y-59684285D01*
X204462914Y-59684285D02*
X204653390Y-59636666D01*
X204653390Y-59636666D02*
X204796247Y-59636666D01*
X204796247Y-59636666D02*
X204986723Y-59684285D01*
X204986723Y-59684285D02*
X205081961Y-59731904D01*
X205081961Y-59731904D02*
X205177200Y-59827142D01*
X205177200Y-59827142D02*
X205224819Y-59969999D01*
X205224819Y-59969999D02*
X205224819Y-60208094D01*
X204558152Y-58779523D02*
X205224819Y-58779523D01*
X204177200Y-59017618D02*
X204891485Y-59255713D01*
X204891485Y-59255713D02*
X204891485Y-58636666D01*
X202532704Y-56498571D02*
X202532704Y-56041428D01*
X202532704Y-56270000D02*
X203332704Y-56270000D01*
X203332704Y-56270000D02*
X203218419Y-56193809D01*
X203218419Y-56193809D02*
X203142228Y-56117619D01*
X203142228Y-56117619D02*
X203104133Y-56041428D01*
X215756667Y-68713200D02*
X215899524Y-68760819D01*
X215899524Y-68760819D02*
X216137619Y-68760819D01*
X216137619Y-68760819D02*
X216232857Y-68713200D01*
X216232857Y-68713200D02*
X216280476Y-68665580D01*
X216280476Y-68665580D02*
X216328095Y-68570342D01*
X216328095Y-68570342D02*
X216328095Y-68475104D01*
X216328095Y-68475104D02*
X216280476Y-68379866D01*
X216280476Y-68379866D02*
X216232857Y-68332247D01*
X216232857Y-68332247D02*
X216137619Y-68284628D01*
X216137619Y-68284628D02*
X215947143Y-68237009D01*
X215947143Y-68237009D02*
X215851905Y-68189390D01*
X215851905Y-68189390D02*
X215804286Y-68141771D01*
X215804286Y-68141771D02*
X215756667Y-68046533D01*
X215756667Y-68046533D02*
X215756667Y-67951295D01*
X215756667Y-67951295D02*
X215804286Y-67856057D01*
X215804286Y-67856057D02*
X215851905Y-67808438D01*
X215851905Y-67808438D02*
X215947143Y-67760819D01*
X215947143Y-67760819D02*
X216185238Y-67760819D01*
X216185238Y-67760819D02*
X216328095Y-67808438D01*
X216661429Y-67760819D02*
X216899524Y-68760819D01*
X216899524Y-68760819D02*
X217090000Y-68046533D01*
X217090000Y-68046533D02*
X217280476Y-68760819D01*
X217280476Y-68760819D02*
X217518572Y-67760819D01*
X217851905Y-67856057D02*
X217899524Y-67808438D01*
X217899524Y-67808438D02*
X217994762Y-67760819D01*
X217994762Y-67760819D02*
X218232857Y-67760819D01*
X218232857Y-67760819D02*
X218328095Y-67808438D01*
X218328095Y-67808438D02*
X218375714Y-67856057D01*
X218375714Y-67856057D02*
X218423333Y-67951295D01*
X218423333Y-67951295D02*
X218423333Y-68046533D01*
X218423333Y-68046533D02*
X218375714Y-68189390D01*
X218375714Y-68189390D02*
X217804286Y-68760819D01*
X217804286Y-68760819D02*
X218423333Y-68760819D01*
X215921667Y-106882200D02*
X216064524Y-106929819D01*
X216064524Y-106929819D02*
X216302619Y-106929819D01*
X216302619Y-106929819D02*
X216397857Y-106882200D01*
X216397857Y-106882200D02*
X216445476Y-106834580D01*
X216445476Y-106834580D02*
X216493095Y-106739342D01*
X216493095Y-106739342D02*
X216493095Y-106644104D01*
X216493095Y-106644104D02*
X216445476Y-106548866D01*
X216445476Y-106548866D02*
X216397857Y-106501247D01*
X216397857Y-106501247D02*
X216302619Y-106453628D01*
X216302619Y-106453628D02*
X216112143Y-106406009D01*
X216112143Y-106406009D02*
X216016905Y-106358390D01*
X216016905Y-106358390D02*
X215969286Y-106310771D01*
X215969286Y-106310771D02*
X215921667Y-106215533D01*
X215921667Y-106215533D02*
X215921667Y-106120295D01*
X215921667Y-106120295D02*
X215969286Y-106025057D01*
X215969286Y-106025057D02*
X216016905Y-105977438D01*
X216016905Y-105977438D02*
X216112143Y-105929819D01*
X216112143Y-105929819D02*
X216350238Y-105929819D01*
X216350238Y-105929819D02*
X216493095Y-105977438D01*
X216826429Y-105929819D02*
X217064524Y-106929819D01*
X217064524Y-106929819D02*
X217255000Y-106215533D01*
X217255000Y-106215533D02*
X217445476Y-106929819D01*
X217445476Y-106929819D02*
X217683572Y-105929819D01*
X218493095Y-105929819D02*
X218302619Y-105929819D01*
X218302619Y-105929819D02*
X218207381Y-105977438D01*
X218207381Y-105977438D02*
X218159762Y-106025057D01*
X218159762Y-106025057D02*
X218064524Y-106167914D01*
X218064524Y-106167914D02*
X218016905Y-106358390D01*
X218016905Y-106358390D02*
X218016905Y-106739342D01*
X218016905Y-106739342D02*
X218064524Y-106834580D01*
X218064524Y-106834580D02*
X218112143Y-106882200D01*
X218112143Y-106882200D02*
X218207381Y-106929819D01*
X218207381Y-106929819D02*
X218397857Y-106929819D01*
X218397857Y-106929819D02*
X218493095Y-106882200D01*
X218493095Y-106882200D02*
X218540714Y-106834580D01*
X218540714Y-106834580D02*
X218588333Y-106739342D01*
X218588333Y-106739342D02*
X218588333Y-106501247D01*
X218588333Y-106501247D02*
X218540714Y-106406009D01*
X218540714Y-106406009D02*
X218493095Y-106358390D01*
X218493095Y-106358390D02*
X218397857Y-106310771D01*
X218397857Y-106310771D02*
X218207381Y-106310771D01*
X218207381Y-106310771D02*
X218112143Y-106358390D01*
X218112143Y-106358390D02*
X218064524Y-106406009D01*
X218064524Y-106406009D02*
X218016905Y-106501247D01*
X196506667Y-88003200D02*
X196649524Y-88050819D01*
X196649524Y-88050819D02*
X196887619Y-88050819D01*
X196887619Y-88050819D02*
X196982857Y-88003200D01*
X196982857Y-88003200D02*
X197030476Y-87955580D01*
X197030476Y-87955580D02*
X197078095Y-87860342D01*
X197078095Y-87860342D02*
X197078095Y-87765104D01*
X197078095Y-87765104D02*
X197030476Y-87669866D01*
X197030476Y-87669866D02*
X196982857Y-87622247D01*
X196982857Y-87622247D02*
X196887619Y-87574628D01*
X196887619Y-87574628D02*
X196697143Y-87527009D01*
X196697143Y-87527009D02*
X196601905Y-87479390D01*
X196601905Y-87479390D02*
X196554286Y-87431771D01*
X196554286Y-87431771D02*
X196506667Y-87336533D01*
X196506667Y-87336533D02*
X196506667Y-87241295D01*
X196506667Y-87241295D02*
X196554286Y-87146057D01*
X196554286Y-87146057D02*
X196601905Y-87098438D01*
X196601905Y-87098438D02*
X196697143Y-87050819D01*
X196697143Y-87050819D02*
X196935238Y-87050819D01*
X196935238Y-87050819D02*
X197078095Y-87098438D01*
X197411429Y-87050819D02*
X197649524Y-88050819D01*
X197649524Y-88050819D02*
X197840000Y-87336533D01*
X197840000Y-87336533D02*
X198030476Y-88050819D01*
X198030476Y-88050819D02*
X198268572Y-87050819D01*
X198554286Y-87050819D02*
X199173333Y-87050819D01*
X199173333Y-87050819D02*
X198840000Y-87431771D01*
X198840000Y-87431771D02*
X198982857Y-87431771D01*
X198982857Y-87431771D02*
X199078095Y-87479390D01*
X199078095Y-87479390D02*
X199125714Y-87527009D01*
X199125714Y-87527009D02*
X199173333Y-87622247D01*
X199173333Y-87622247D02*
X199173333Y-87860342D01*
X199173333Y-87860342D02*
X199125714Y-87955580D01*
X199125714Y-87955580D02*
X199078095Y-88003200D01*
X199078095Y-88003200D02*
X198982857Y-88050819D01*
X198982857Y-88050819D02*
X198697143Y-88050819D01*
X198697143Y-88050819D02*
X198601905Y-88003200D01*
X198601905Y-88003200D02*
X198554286Y-87955580D01*
X215756667Y-88003200D02*
X215899524Y-88050819D01*
X215899524Y-88050819D02*
X216137619Y-88050819D01*
X216137619Y-88050819D02*
X216232857Y-88003200D01*
X216232857Y-88003200D02*
X216280476Y-87955580D01*
X216280476Y-87955580D02*
X216328095Y-87860342D01*
X216328095Y-87860342D02*
X216328095Y-87765104D01*
X216328095Y-87765104D02*
X216280476Y-87669866D01*
X216280476Y-87669866D02*
X216232857Y-87622247D01*
X216232857Y-87622247D02*
X216137619Y-87574628D01*
X216137619Y-87574628D02*
X215947143Y-87527009D01*
X215947143Y-87527009D02*
X215851905Y-87479390D01*
X215851905Y-87479390D02*
X215804286Y-87431771D01*
X215804286Y-87431771D02*
X215756667Y-87336533D01*
X215756667Y-87336533D02*
X215756667Y-87241295D01*
X215756667Y-87241295D02*
X215804286Y-87146057D01*
X215804286Y-87146057D02*
X215851905Y-87098438D01*
X215851905Y-87098438D02*
X215947143Y-87050819D01*
X215947143Y-87050819D02*
X216185238Y-87050819D01*
X216185238Y-87050819D02*
X216328095Y-87098438D01*
X216661429Y-87050819D02*
X216899524Y-88050819D01*
X216899524Y-88050819D02*
X217090000Y-87336533D01*
X217090000Y-87336533D02*
X217280476Y-88050819D01*
X217280476Y-88050819D02*
X217518572Y-87050819D01*
X218328095Y-87384152D02*
X218328095Y-88050819D01*
X218090000Y-87003200D02*
X217851905Y-87717485D01*
X217851905Y-87717485D02*
X218470952Y-87717485D01*
X182416666Y-52554819D02*
X182083333Y-52078628D01*
X181845238Y-52554819D02*
X181845238Y-51554819D01*
X181845238Y-51554819D02*
X182226190Y-51554819D01*
X182226190Y-51554819D02*
X182321428Y-51602438D01*
X182321428Y-51602438D02*
X182369047Y-51650057D01*
X182369047Y-51650057D02*
X182416666Y-51745295D01*
X182416666Y-51745295D02*
X182416666Y-51888152D01*
X182416666Y-51888152D02*
X182369047Y-51983390D01*
X182369047Y-51983390D02*
X182321428Y-52031009D01*
X182321428Y-52031009D02*
X182226190Y-52078628D01*
X182226190Y-52078628D02*
X181845238Y-52078628D01*
X182845238Y-52031009D02*
X183178571Y-52031009D01*
X183321428Y-52554819D02*
X182845238Y-52554819D01*
X182845238Y-52554819D02*
X182845238Y-51554819D01*
X182845238Y-51554819D02*
X183321428Y-51554819D01*
X184083333Y-52031009D02*
X183750000Y-52031009D01*
X183750000Y-52554819D02*
X183750000Y-51554819D01*
X183750000Y-51554819D02*
X184226190Y-51554819D01*
X184750000Y-51554819D02*
X184750000Y-51792914D01*
X184511905Y-51697676D02*
X184750000Y-51792914D01*
X184750000Y-51792914D02*
X184988095Y-51697676D01*
X184607143Y-51983390D02*
X184750000Y-51792914D01*
X184750000Y-51792914D02*
X184892857Y-51983390D01*
X185511905Y-51554819D02*
X185511905Y-51792914D01*
X185273810Y-51697676D02*
X185511905Y-51792914D01*
X185511905Y-51792914D02*
X185750000Y-51697676D01*
X185369048Y-51983390D02*
X185511905Y-51792914D01*
X185511905Y-51792914D02*
X185654762Y-51983390D01*
X256166666Y-120054819D02*
X255833333Y-119578628D01*
X255595238Y-120054819D02*
X255595238Y-119054819D01*
X255595238Y-119054819D02*
X255976190Y-119054819D01*
X255976190Y-119054819D02*
X256071428Y-119102438D01*
X256071428Y-119102438D02*
X256119047Y-119150057D01*
X256119047Y-119150057D02*
X256166666Y-119245295D01*
X256166666Y-119245295D02*
X256166666Y-119388152D01*
X256166666Y-119388152D02*
X256119047Y-119483390D01*
X256119047Y-119483390D02*
X256071428Y-119531009D01*
X256071428Y-119531009D02*
X255976190Y-119578628D01*
X255976190Y-119578628D02*
X255595238Y-119578628D01*
X256595238Y-119531009D02*
X256928571Y-119531009D01*
X257071428Y-120054819D02*
X256595238Y-120054819D01*
X256595238Y-120054819D02*
X256595238Y-119054819D01*
X256595238Y-119054819D02*
X257071428Y-119054819D01*
X257833333Y-119531009D02*
X257500000Y-119531009D01*
X257500000Y-120054819D02*
X257500000Y-119054819D01*
X257500000Y-119054819D02*
X257976190Y-119054819D01*
X258500000Y-119054819D02*
X258500000Y-119292914D01*
X258261905Y-119197676D02*
X258500000Y-119292914D01*
X258500000Y-119292914D02*
X258738095Y-119197676D01*
X258357143Y-119483390D02*
X258500000Y-119292914D01*
X258500000Y-119292914D02*
X258642857Y-119483390D01*
X259261905Y-119054819D02*
X259261905Y-119292914D01*
X259023810Y-119197676D02*
X259261905Y-119292914D01*
X259261905Y-119292914D02*
X259500000Y-119197676D01*
X259119048Y-119483390D02*
X259261905Y-119292914D01*
X259261905Y-119292914D02*
X259404762Y-119483390D01*
X256166666Y-52554819D02*
X255833333Y-52078628D01*
X255595238Y-52554819D02*
X255595238Y-51554819D01*
X255595238Y-51554819D02*
X255976190Y-51554819D01*
X255976190Y-51554819D02*
X256071428Y-51602438D01*
X256071428Y-51602438D02*
X256119047Y-51650057D01*
X256119047Y-51650057D02*
X256166666Y-51745295D01*
X256166666Y-51745295D02*
X256166666Y-51888152D01*
X256166666Y-51888152D02*
X256119047Y-51983390D01*
X256119047Y-51983390D02*
X256071428Y-52031009D01*
X256071428Y-52031009D02*
X255976190Y-52078628D01*
X255976190Y-52078628D02*
X255595238Y-52078628D01*
X256595238Y-52031009D02*
X256928571Y-52031009D01*
X257071428Y-52554819D02*
X256595238Y-52554819D01*
X256595238Y-52554819D02*
X256595238Y-51554819D01*
X256595238Y-51554819D02*
X257071428Y-51554819D01*
X257833333Y-52031009D02*
X257500000Y-52031009D01*
X257500000Y-52554819D02*
X257500000Y-51554819D01*
X257500000Y-51554819D02*
X257976190Y-51554819D01*
X258500000Y-51554819D02*
X258500000Y-51792914D01*
X258261905Y-51697676D02*
X258500000Y-51792914D01*
X258500000Y-51792914D02*
X258738095Y-51697676D01*
X258357143Y-51983390D02*
X258500000Y-51792914D01*
X258500000Y-51792914D02*
X258642857Y-51983390D01*
X259261905Y-51554819D02*
X259261905Y-51792914D01*
X259023810Y-51697676D02*
X259261905Y-51792914D01*
X259261905Y-51792914D02*
X259500000Y-51697676D01*
X259119048Y-51983390D02*
X259261905Y-51792914D01*
X259261905Y-51792914D02*
X259404762Y-51983390D01*
X239918333Y-118386009D02*
X240061190Y-118433628D01*
X240061190Y-118433628D02*
X240108809Y-118481247D01*
X240108809Y-118481247D02*
X240156428Y-118576485D01*
X240156428Y-118576485D02*
X240156428Y-118719342D01*
X240156428Y-118719342D02*
X240108809Y-118814580D01*
X240108809Y-118814580D02*
X240061190Y-118862200D01*
X240061190Y-118862200D02*
X239965952Y-118909819D01*
X239965952Y-118909819D02*
X239585000Y-118909819D01*
X239585000Y-118909819D02*
X239585000Y-117909819D01*
X239585000Y-117909819D02*
X239918333Y-117909819D01*
X239918333Y-117909819D02*
X240013571Y-117957438D01*
X240013571Y-117957438D02*
X240061190Y-118005057D01*
X240061190Y-118005057D02*
X240108809Y-118100295D01*
X240108809Y-118100295D02*
X240108809Y-118195533D01*
X240108809Y-118195533D02*
X240061190Y-118290771D01*
X240061190Y-118290771D02*
X240013571Y-118338390D01*
X240013571Y-118338390D02*
X239918333Y-118386009D01*
X239918333Y-118386009D02*
X239585000Y-118386009D01*
X240585000Y-118909819D02*
X240585000Y-118243152D01*
X240585000Y-118433628D02*
X240632619Y-118338390D01*
X240632619Y-118338390D02*
X240680238Y-118290771D01*
X240680238Y-118290771D02*
X240775476Y-118243152D01*
X240775476Y-118243152D02*
X240870714Y-118243152D01*
X241632619Y-118909819D02*
X241632619Y-117909819D01*
X241632619Y-118862200D02*
X241537381Y-118909819D01*
X241537381Y-118909819D02*
X241346905Y-118909819D01*
X241346905Y-118909819D02*
X241251667Y-118862200D01*
X241251667Y-118862200D02*
X241204048Y-118814580D01*
X241204048Y-118814580D02*
X241156429Y-118719342D01*
X241156429Y-118719342D02*
X241156429Y-118433628D01*
X241156429Y-118433628D02*
X241204048Y-118338390D01*
X241204048Y-118338390D02*
X241251667Y-118290771D01*
X241251667Y-118290771D02*
X241346905Y-118243152D01*
X241346905Y-118243152D02*
X241537381Y-118243152D01*
X241537381Y-118243152D02*
X241632619Y-118290771D01*
X242632619Y-118909819D02*
X242061191Y-118909819D01*
X242346905Y-118909819D02*
X242346905Y-117909819D01*
X242346905Y-117909819D02*
X242251667Y-118052676D01*
X242251667Y-118052676D02*
X242156429Y-118147914D01*
X242156429Y-118147914D02*
X242061191Y-118195533D01*
X244074286Y-86158450D02*
X244181429Y-86194164D01*
X244181429Y-86194164D02*
X244360000Y-86194164D01*
X244360000Y-86194164D02*
X244431429Y-86158450D01*
X244431429Y-86158450D02*
X244467143Y-86122735D01*
X244467143Y-86122735D02*
X244502857Y-86051307D01*
X244502857Y-86051307D02*
X244502857Y-85979878D01*
X244502857Y-85979878D02*
X244467143Y-85908450D01*
X244467143Y-85908450D02*
X244431429Y-85872735D01*
X244431429Y-85872735D02*
X244360000Y-85837021D01*
X244360000Y-85837021D02*
X244217143Y-85801307D01*
X244217143Y-85801307D02*
X244145714Y-85765592D01*
X244145714Y-85765592D02*
X244110000Y-85729878D01*
X244110000Y-85729878D02*
X244074286Y-85658450D01*
X244074286Y-85658450D02*
X244074286Y-85587021D01*
X244074286Y-85587021D02*
X244110000Y-85515592D01*
X244110000Y-85515592D02*
X244145714Y-85479878D01*
X244145714Y-85479878D02*
X244217143Y-85444164D01*
X244217143Y-85444164D02*
X244395714Y-85444164D01*
X244395714Y-85444164D02*
X244502857Y-85479878D01*
X244824286Y-86194164D02*
X244824286Y-85444164D01*
X244824286Y-85444164D02*
X245002857Y-85444164D01*
X245002857Y-85444164D02*
X245110000Y-85479878D01*
X245110000Y-85479878D02*
X245181429Y-85551307D01*
X245181429Y-85551307D02*
X245217143Y-85622735D01*
X245217143Y-85622735D02*
X245252857Y-85765592D01*
X245252857Y-85765592D02*
X245252857Y-85872735D01*
X245252857Y-85872735D02*
X245217143Y-86015592D01*
X245217143Y-86015592D02*
X245181429Y-86087021D01*
X245181429Y-86087021D02*
X245110000Y-86158450D01*
X245110000Y-86158450D02*
X245002857Y-86194164D01*
X245002857Y-86194164D02*
X244824286Y-86194164D01*
X245538572Y-85979878D02*
X245895715Y-85979878D01*
X245467143Y-86194164D02*
X245717143Y-85444164D01*
X245717143Y-85444164D02*
X245967143Y-86194164D01*
X238905000Y-85444164D02*
X239155000Y-86194164D01*
X239155000Y-86194164D02*
X239405000Y-85444164D01*
X240083571Y-86122735D02*
X240047857Y-86158450D01*
X240047857Y-86158450D02*
X239940714Y-86194164D01*
X239940714Y-86194164D02*
X239869286Y-86194164D01*
X239869286Y-86194164D02*
X239762143Y-86158450D01*
X239762143Y-86158450D02*
X239690714Y-86087021D01*
X239690714Y-86087021D02*
X239655000Y-86015592D01*
X239655000Y-86015592D02*
X239619286Y-85872735D01*
X239619286Y-85872735D02*
X239619286Y-85765592D01*
X239619286Y-85765592D02*
X239655000Y-85622735D01*
X239655000Y-85622735D02*
X239690714Y-85551307D01*
X239690714Y-85551307D02*
X239762143Y-85479878D01*
X239762143Y-85479878D02*
X239869286Y-85444164D01*
X239869286Y-85444164D02*
X239940714Y-85444164D01*
X239940714Y-85444164D02*
X240047857Y-85479878D01*
X240047857Y-85479878D02*
X240083571Y-85515592D01*
X240833571Y-86122735D02*
X240797857Y-86158450D01*
X240797857Y-86158450D02*
X240690714Y-86194164D01*
X240690714Y-86194164D02*
X240619286Y-86194164D01*
X240619286Y-86194164D02*
X240512143Y-86158450D01*
X240512143Y-86158450D02*
X240440714Y-86087021D01*
X240440714Y-86087021D02*
X240405000Y-86015592D01*
X240405000Y-86015592D02*
X240369286Y-85872735D01*
X240369286Y-85872735D02*
X240369286Y-85765592D01*
X240369286Y-85765592D02*
X240405000Y-85622735D01*
X240405000Y-85622735D02*
X240440714Y-85551307D01*
X240440714Y-85551307D02*
X240512143Y-85479878D01*
X240512143Y-85479878D02*
X240619286Y-85444164D01*
X240619286Y-85444164D02*
X240690714Y-85444164D01*
X240690714Y-85444164D02*
X240797857Y-85479878D01*
X240797857Y-85479878D02*
X240833571Y-85515592D01*
X241552143Y-86158450D02*
X241659286Y-86194164D01*
X241659286Y-86194164D02*
X241837857Y-86194164D01*
X241837857Y-86194164D02*
X241909286Y-86158450D01*
X241909286Y-86158450D02*
X241945000Y-86122735D01*
X241945000Y-86122735D02*
X241980714Y-86051307D01*
X241980714Y-86051307D02*
X241980714Y-85979878D01*
X241980714Y-85979878D02*
X241945000Y-85908450D01*
X241945000Y-85908450D02*
X241909286Y-85872735D01*
X241909286Y-85872735D02*
X241837857Y-85837021D01*
X241837857Y-85837021D02*
X241695000Y-85801307D01*
X241695000Y-85801307D02*
X241623571Y-85765592D01*
X241623571Y-85765592D02*
X241587857Y-85729878D01*
X241587857Y-85729878D02*
X241552143Y-85658450D01*
X241552143Y-85658450D02*
X241552143Y-85587021D01*
X241552143Y-85587021D02*
X241587857Y-85515592D01*
X241587857Y-85515592D02*
X241623571Y-85479878D01*
X241623571Y-85479878D02*
X241695000Y-85444164D01*
X241695000Y-85444164D02*
X241873571Y-85444164D01*
X241873571Y-85444164D02*
X241980714Y-85479878D01*
X242730714Y-86122735D02*
X242695000Y-86158450D01*
X242695000Y-86158450D02*
X242587857Y-86194164D01*
X242587857Y-86194164D02*
X242516429Y-86194164D01*
X242516429Y-86194164D02*
X242409286Y-86158450D01*
X242409286Y-86158450D02*
X242337857Y-86087021D01*
X242337857Y-86087021D02*
X242302143Y-86015592D01*
X242302143Y-86015592D02*
X242266429Y-85872735D01*
X242266429Y-85872735D02*
X242266429Y-85765592D01*
X242266429Y-85765592D02*
X242302143Y-85622735D01*
X242302143Y-85622735D02*
X242337857Y-85551307D01*
X242337857Y-85551307D02*
X242409286Y-85479878D01*
X242409286Y-85479878D02*
X242516429Y-85444164D01*
X242516429Y-85444164D02*
X242587857Y-85444164D01*
X242587857Y-85444164D02*
X242695000Y-85479878D01*
X242695000Y-85479878D02*
X242730714Y-85515592D01*
X243409286Y-86194164D02*
X243052143Y-86194164D01*
X243052143Y-86194164D02*
X243052143Y-85444164D01*
X240629819Y-105283571D02*
X240629819Y-105093095D01*
X240629819Y-105093095D02*
X240677438Y-104997857D01*
X240677438Y-104997857D02*
X240772676Y-104902619D01*
X240772676Y-104902619D02*
X240963152Y-104855000D01*
X240963152Y-104855000D02*
X241296485Y-104855000D01*
X241296485Y-104855000D02*
X241486961Y-104902619D01*
X241486961Y-104902619D02*
X241582200Y-104997857D01*
X241582200Y-104997857D02*
X241629819Y-105093095D01*
X241629819Y-105093095D02*
X241629819Y-105283571D01*
X241629819Y-105283571D02*
X241582200Y-105378809D01*
X241582200Y-105378809D02*
X241486961Y-105474047D01*
X241486961Y-105474047D02*
X241296485Y-105521666D01*
X241296485Y-105521666D02*
X240963152Y-105521666D01*
X240963152Y-105521666D02*
X240772676Y-105474047D01*
X240772676Y-105474047D02*
X240677438Y-105378809D01*
X240677438Y-105378809D02*
X240629819Y-105283571D01*
X241629819Y-103950238D02*
X241629819Y-104426428D01*
X241629819Y-104426428D02*
X240629819Y-104426428D01*
X241106009Y-103616904D02*
X241106009Y-103283571D01*
X241629819Y-103140714D02*
X241629819Y-103616904D01*
X241629819Y-103616904D02*
X240629819Y-103616904D01*
X240629819Y-103616904D02*
X240629819Y-103140714D01*
X241629819Y-102712142D02*
X240629819Y-102712142D01*
X240629819Y-102712142D02*
X240629819Y-102474047D01*
X240629819Y-102474047D02*
X240677438Y-102331190D01*
X240677438Y-102331190D02*
X240772676Y-102235952D01*
X240772676Y-102235952D02*
X240867914Y-102188333D01*
X240867914Y-102188333D02*
X241058390Y-102140714D01*
X241058390Y-102140714D02*
X241201247Y-102140714D01*
X241201247Y-102140714D02*
X241391723Y-102188333D01*
X241391723Y-102188333D02*
X241486961Y-102235952D01*
X241486961Y-102235952D02*
X241582200Y-102331190D01*
X241582200Y-102331190D02*
X241629819Y-102474047D01*
X241629819Y-102474047D02*
X241629819Y-102712142D01*
X241629819Y-100950237D02*
X240629819Y-100950237D01*
X240629819Y-100950237D02*
X240629819Y-100569285D01*
X240629819Y-100569285D02*
X240677438Y-100474047D01*
X240677438Y-100474047D02*
X240725057Y-100426428D01*
X240725057Y-100426428D02*
X240820295Y-100378809D01*
X240820295Y-100378809D02*
X240963152Y-100378809D01*
X240963152Y-100378809D02*
X241058390Y-100426428D01*
X241058390Y-100426428D02*
X241106009Y-100474047D01*
X241106009Y-100474047D02*
X241153628Y-100569285D01*
X241153628Y-100569285D02*
X241153628Y-100950237D01*
X241629819Y-99521666D02*
X241106009Y-99521666D01*
X241106009Y-99521666D02*
X241010771Y-99569285D01*
X241010771Y-99569285D02*
X240963152Y-99664523D01*
X240963152Y-99664523D02*
X240963152Y-99854999D01*
X240963152Y-99854999D02*
X241010771Y-99950237D01*
X241582200Y-99521666D02*
X241629819Y-99616904D01*
X241629819Y-99616904D02*
X241629819Y-99854999D01*
X241629819Y-99854999D02*
X241582200Y-99950237D01*
X241582200Y-99950237D02*
X241486961Y-99997856D01*
X241486961Y-99997856D02*
X241391723Y-99997856D01*
X241391723Y-99997856D02*
X241296485Y-99950237D01*
X241296485Y-99950237D02*
X241248866Y-99854999D01*
X241248866Y-99854999D02*
X241248866Y-99616904D01*
X241248866Y-99616904D02*
X241201247Y-99521666D01*
X240963152Y-99045475D02*
X241629819Y-99045475D01*
X241058390Y-99045475D02*
X241010771Y-98997856D01*
X241010771Y-98997856D02*
X240963152Y-98902618D01*
X240963152Y-98902618D02*
X240963152Y-98759761D01*
X240963152Y-98759761D02*
X241010771Y-98664523D01*
X241010771Y-98664523D02*
X241106009Y-98616904D01*
X241106009Y-98616904D02*
X241629819Y-98616904D01*
X241582200Y-97759761D02*
X241629819Y-97854999D01*
X241629819Y-97854999D02*
X241629819Y-98045475D01*
X241629819Y-98045475D02*
X241582200Y-98140713D01*
X241582200Y-98140713D02*
X241486961Y-98188332D01*
X241486961Y-98188332D02*
X241106009Y-98188332D01*
X241106009Y-98188332D02*
X241010771Y-98140713D01*
X241010771Y-98140713D02*
X240963152Y-98045475D01*
X240963152Y-98045475D02*
X240963152Y-97854999D01*
X240963152Y-97854999D02*
X241010771Y-97759761D01*
X241010771Y-97759761D02*
X241106009Y-97712142D01*
X241106009Y-97712142D02*
X241201247Y-97712142D01*
X241201247Y-97712142D02*
X241296485Y-98188332D01*
X241629819Y-97140713D02*
X241582200Y-97235951D01*
X241582200Y-97235951D02*
X241486961Y-97283570D01*
X241486961Y-97283570D02*
X240629819Y-97283570D01*
X236793571Y-85479878D02*
X236722143Y-85444164D01*
X236722143Y-85444164D02*
X236615000Y-85444164D01*
X236615000Y-85444164D02*
X236507857Y-85479878D01*
X236507857Y-85479878D02*
X236436428Y-85551307D01*
X236436428Y-85551307D02*
X236400714Y-85622735D01*
X236400714Y-85622735D02*
X236365000Y-85765592D01*
X236365000Y-85765592D02*
X236365000Y-85872735D01*
X236365000Y-85872735D02*
X236400714Y-86015592D01*
X236400714Y-86015592D02*
X236436428Y-86087021D01*
X236436428Y-86087021D02*
X236507857Y-86158450D01*
X236507857Y-86158450D02*
X236615000Y-86194164D01*
X236615000Y-86194164D02*
X236686428Y-86194164D01*
X236686428Y-86194164D02*
X236793571Y-86158450D01*
X236793571Y-86158450D02*
X236829285Y-86122735D01*
X236829285Y-86122735D02*
X236829285Y-85872735D01*
X236829285Y-85872735D02*
X236686428Y-85872735D01*
X237150714Y-86194164D02*
X237150714Y-85444164D01*
X237150714Y-85444164D02*
X237579285Y-86194164D01*
X237579285Y-86194164D02*
X237579285Y-85444164D01*
X237936428Y-86194164D02*
X237936428Y-85444164D01*
X237936428Y-85444164D02*
X238114999Y-85444164D01*
X238114999Y-85444164D02*
X238222142Y-85479878D01*
X238222142Y-85479878D02*
X238293571Y-85551307D01*
X238293571Y-85551307D02*
X238329285Y-85622735D01*
X238329285Y-85622735D02*
X238364999Y-85765592D01*
X238364999Y-85765592D02*
X238364999Y-85872735D01*
X238364999Y-85872735D02*
X238329285Y-86015592D01*
X238329285Y-86015592D02*
X238293571Y-86087021D01*
X238293571Y-86087021D02*
X238222142Y-86158450D01*
X238222142Y-86158450D02*
X238114999Y-86194164D01*
X238114999Y-86194164D02*
X237936428Y-86194164D01*
X198444819Y-60208094D02*
X197444819Y-60208094D01*
X197444819Y-60208094D02*
X197444819Y-59969999D01*
X197444819Y-59969999D02*
X197492438Y-59827142D01*
X197492438Y-59827142D02*
X197587676Y-59731904D01*
X197587676Y-59731904D02*
X197682914Y-59684285D01*
X197682914Y-59684285D02*
X197873390Y-59636666D01*
X197873390Y-59636666D02*
X198016247Y-59636666D01*
X198016247Y-59636666D02*
X198206723Y-59684285D01*
X198206723Y-59684285D02*
X198301961Y-59731904D01*
X198301961Y-59731904D02*
X198397200Y-59827142D01*
X198397200Y-59827142D02*
X198444819Y-59969999D01*
X198444819Y-59969999D02*
X198444819Y-60208094D01*
X197444819Y-58731904D02*
X197444819Y-59208094D01*
X197444819Y-59208094D02*
X197921009Y-59255713D01*
X197921009Y-59255713D02*
X197873390Y-59208094D01*
X197873390Y-59208094D02*
X197825771Y-59112856D01*
X197825771Y-59112856D02*
X197825771Y-58874761D01*
X197825771Y-58874761D02*
X197873390Y-58779523D01*
X197873390Y-58779523D02*
X197921009Y-58731904D01*
X197921009Y-58731904D02*
X198016247Y-58684285D01*
X198016247Y-58684285D02*
X198254342Y-58684285D01*
X198254342Y-58684285D02*
X198349580Y-58731904D01*
X198349580Y-58731904D02*
X198397200Y-58779523D01*
X198397200Y-58779523D02*
X198444819Y-58874761D01*
X198444819Y-58874761D02*
X198444819Y-59112856D01*
X198444819Y-59112856D02*
X198397200Y-59208094D01*
X198397200Y-59208094D02*
X198349580Y-59255713D01*
X195752704Y-56498571D02*
X195752704Y-56041428D01*
X195752704Y-56270000D02*
X196552704Y-56270000D01*
X196552704Y-56270000D02*
X196438419Y-56193809D01*
X196438419Y-56193809D02*
X196362228Y-56117619D01*
X196362228Y-56117619D02*
X196324133Y-56041428D01*
X182416666Y-120054819D02*
X182083333Y-119578628D01*
X181845238Y-120054819D02*
X181845238Y-119054819D01*
X181845238Y-119054819D02*
X182226190Y-119054819D01*
X182226190Y-119054819D02*
X182321428Y-119102438D01*
X182321428Y-119102438D02*
X182369047Y-119150057D01*
X182369047Y-119150057D02*
X182416666Y-119245295D01*
X182416666Y-119245295D02*
X182416666Y-119388152D01*
X182416666Y-119388152D02*
X182369047Y-119483390D01*
X182369047Y-119483390D02*
X182321428Y-119531009D01*
X182321428Y-119531009D02*
X182226190Y-119578628D01*
X182226190Y-119578628D02*
X181845238Y-119578628D01*
X182845238Y-119531009D02*
X183178571Y-119531009D01*
X183321428Y-120054819D02*
X182845238Y-120054819D01*
X182845238Y-120054819D02*
X182845238Y-119054819D01*
X182845238Y-119054819D02*
X183321428Y-119054819D01*
X184083333Y-119531009D02*
X183750000Y-119531009D01*
X183750000Y-120054819D02*
X183750000Y-119054819D01*
X183750000Y-119054819D02*
X184226190Y-119054819D01*
X184750000Y-119054819D02*
X184750000Y-119292914D01*
X184511905Y-119197676D02*
X184750000Y-119292914D01*
X184750000Y-119292914D02*
X184988095Y-119197676D01*
X184607143Y-119483390D02*
X184750000Y-119292914D01*
X184750000Y-119292914D02*
X184892857Y-119483390D01*
X185511905Y-119054819D02*
X185511905Y-119292914D01*
X185273810Y-119197676D02*
X185511905Y-119292914D01*
X185511905Y-119292914D02*
X185750000Y-119197676D01*
X185369048Y-119483390D02*
X185511905Y-119292914D01*
X185511905Y-119292914D02*
X185654762Y-119483390D01*
X217784819Y-60208094D02*
X216784819Y-60208094D01*
X216784819Y-60208094D02*
X216784819Y-59969999D01*
X216784819Y-59969999D02*
X216832438Y-59827142D01*
X216832438Y-59827142D02*
X216927676Y-59731904D01*
X216927676Y-59731904D02*
X217022914Y-59684285D01*
X217022914Y-59684285D02*
X217213390Y-59636666D01*
X217213390Y-59636666D02*
X217356247Y-59636666D01*
X217356247Y-59636666D02*
X217546723Y-59684285D01*
X217546723Y-59684285D02*
X217641961Y-59731904D01*
X217641961Y-59731904D02*
X217737200Y-59827142D01*
X217737200Y-59827142D02*
X217784819Y-59969999D01*
X217784819Y-59969999D02*
X217784819Y-60208094D01*
X216880057Y-59255713D02*
X216832438Y-59208094D01*
X216832438Y-59208094D02*
X216784819Y-59112856D01*
X216784819Y-59112856D02*
X216784819Y-58874761D01*
X216784819Y-58874761D02*
X216832438Y-58779523D01*
X216832438Y-58779523D02*
X216880057Y-58731904D01*
X216880057Y-58731904D02*
X216975295Y-58684285D01*
X216975295Y-58684285D02*
X217070533Y-58684285D01*
X217070533Y-58684285D02*
X217213390Y-58731904D01*
X217213390Y-58731904D02*
X217784819Y-59303332D01*
X217784819Y-59303332D02*
X217784819Y-58684285D01*
X215092704Y-56498571D02*
X215092704Y-56041428D01*
X215092704Y-56270000D02*
X215892704Y-56270000D01*
X215892704Y-56270000D02*
X215778419Y-56193809D01*
X215778419Y-56193809D02*
X215702228Y-56117619D01*
X215702228Y-56117619D02*
X215664133Y-56041428D01*
D14*
X240716190Y-59883479D02*
X240716190Y-60397526D01*
X240716190Y-60397526D02*
X240746428Y-60458002D01*
X240746428Y-60458002D02*
X240776666Y-60488241D01*
X240776666Y-60488241D02*
X240837142Y-60518479D01*
X240837142Y-60518479D02*
X240958095Y-60518479D01*
X240958095Y-60518479D02*
X241018571Y-60488241D01*
X241018571Y-60488241D02*
X241048809Y-60458002D01*
X241048809Y-60458002D02*
X241079047Y-60397526D01*
X241079047Y-60397526D02*
X241079047Y-59883479D01*
X241714047Y-60518479D02*
X241351190Y-60518479D01*
X241532618Y-60518479D02*
X241532618Y-59883479D01*
X241532618Y-59883479D02*
X241472142Y-59974193D01*
X241472142Y-59974193D02*
X241411666Y-60034669D01*
X241411666Y-60034669D02*
X241351190Y-60064907D01*
D13*
X196506667Y-68713200D02*
X196649524Y-68760819D01*
X196649524Y-68760819D02*
X196887619Y-68760819D01*
X196887619Y-68760819D02*
X196982857Y-68713200D01*
X196982857Y-68713200D02*
X197030476Y-68665580D01*
X197030476Y-68665580D02*
X197078095Y-68570342D01*
X197078095Y-68570342D02*
X197078095Y-68475104D01*
X197078095Y-68475104D02*
X197030476Y-68379866D01*
X197030476Y-68379866D02*
X196982857Y-68332247D01*
X196982857Y-68332247D02*
X196887619Y-68284628D01*
X196887619Y-68284628D02*
X196697143Y-68237009D01*
X196697143Y-68237009D02*
X196601905Y-68189390D01*
X196601905Y-68189390D02*
X196554286Y-68141771D01*
X196554286Y-68141771D02*
X196506667Y-68046533D01*
X196506667Y-68046533D02*
X196506667Y-67951295D01*
X196506667Y-67951295D02*
X196554286Y-67856057D01*
X196554286Y-67856057D02*
X196601905Y-67808438D01*
X196601905Y-67808438D02*
X196697143Y-67760819D01*
X196697143Y-67760819D02*
X196935238Y-67760819D01*
X196935238Y-67760819D02*
X197078095Y-67808438D01*
X197411429Y-67760819D02*
X197649524Y-68760819D01*
X197649524Y-68760819D02*
X197840000Y-68046533D01*
X197840000Y-68046533D02*
X198030476Y-68760819D01*
X198030476Y-68760819D02*
X198268572Y-67760819D01*
X199173333Y-68760819D02*
X198601905Y-68760819D01*
X198887619Y-68760819D02*
X198887619Y-67760819D01*
X198887619Y-67760819D02*
X198792381Y-67903676D01*
X198792381Y-67903676D02*
X198697143Y-67998914D01*
X198697143Y-67998914D02*
X198601905Y-68046533D01*
X223564819Y-60208094D02*
X222564819Y-60208094D01*
X222564819Y-60208094D02*
X222564819Y-59969999D01*
X222564819Y-59969999D02*
X222612438Y-59827142D01*
X222612438Y-59827142D02*
X222707676Y-59731904D01*
X222707676Y-59731904D02*
X222802914Y-59684285D01*
X222802914Y-59684285D02*
X222993390Y-59636666D01*
X222993390Y-59636666D02*
X223136247Y-59636666D01*
X223136247Y-59636666D02*
X223326723Y-59684285D01*
X223326723Y-59684285D02*
X223421961Y-59731904D01*
X223421961Y-59731904D02*
X223517200Y-59827142D01*
X223517200Y-59827142D02*
X223564819Y-59969999D01*
X223564819Y-59969999D02*
X223564819Y-60208094D01*
X223564819Y-58684285D02*
X223564819Y-59255713D01*
X223564819Y-58969999D02*
X222564819Y-58969999D01*
X222564819Y-58969999D02*
X222707676Y-59065237D01*
X222707676Y-59065237D02*
X222802914Y-59160475D01*
X222802914Y-59160475D02*
X222850533Y-59255713D01*
X220872704Y-56498571D02*
X220872704Y-56041428D01*
X220872704Y-56270000D02*
X221672704Y-56270000D01*
X221672704Y-56270000D02*
X221558419Y-56193809D01*
X221558419Y-56193809D02*
X221482228Y-56117619D01*
X221482228Y-56117619D02*
X221444133Y-56041428D01*
D15*
%TO.C,SW5*%
X190905000Y-107735000D02*
X204875000Y-107735000D01*
X190905000Y-121705000D02*
X190905000Y-107735000D01*
X204875000Y-107735000D02*
X204875000Y-121705000D01*
X204875000Y-121705000D02*
X190905000Y-121705000D01*
%TO.C,D3*%
X206800000Y-56670000D02*
X206800000Y-61670000D01*
X207400000Y-62270000D02*
X206800000Y-61670000D01*
X207400000Y-62270000D02*
X210800000Y-62270000D01*
X210800000Y-56670000D02*
X206800000Y-56670000D01*
X210800000Y-56670000D02*
X210800000Y-62270000D01*
%TO.C,D4*%
X200020000Y-56670000D02*
X200020000Y-61670000D01*
X200620000Y-62270000D02*
X200020000Y-61670000D01*
X200620000Y-62270000D02*
X204020000Y-62270000D01*
X204020000Y-56670000D02*
X200020000Y-56670000D01*
X204020000Y-56670000D02*
X204020000Y-62270000D01*
%TO.C,SW2*%
X210105000Y-69195000D02*
X224075000Y-69195000D01*
X210105000Y-83165000D02*
X210105000Y-69195000D01*
X224075000Y-69195000D02*
X224075000Y-83165000D01*
X224075000Y-83165000D02*
X210105000Y-83165000D01*
D16*
%TO.C,G\u002A\u002A\u002A*%
G36*
X191735523Y-60951016D02*
G01*
X191826465Y-60997888D01*
X191904662Y-61073860D01*
X191916401Y-61089900D01*
X191947277Y-61139869D01*
X191963503Y-61186108D01*
X191969480Y-61244355D01*
X191970000Y-61281613D01*
X191970000Y-61396198D01*
X192032463Y-61406186D01*
X192125501Y-61438051D01*
X192206901Y-61497927D01*
X192270724Y-61578711D01*
X192311029Y-61673298D01*
X192322329Y-61752801D01*
X192325029Y-61806123D01*
X192334299Y-61834151D01*
X192355039Y-61847126D01*
X192369168Y-61850729D01*
X192482325Y-61890327D01*
X192571472Y-61953483D01*
X192634055Y-62037243D01*
X192667521Y-62138653D01*
X192672591Y-62201766D01*
X192657194Y-62303949D01*
X192614576Y-62395675D01*
X192550098Y-62471133D01*
X192469117Y-62524514D01*
X192376996Y-62550008D01*
X192350066Y-62551358D01*
X192313654Y-62554569D01*
X192304440Y-62569613D01*
X192309744Y-62591379D01*
X192320850Y-62657180D01*
X192319807Y-62735521D01*
X192307704Y-62808845D01*
X192293923Y-62846478D01*
X192233541Y-62931489D01*
X192153978Y-62997353D01*
X192063833Y-63038349D01*
X191988960Y-63049398D01*
X191939949Y-63059104D01*
X191899886Y-63093633D01*
X191891546Y-63104415D01*
X191828543Y-63162853D01*
X191743056Y-63204923D01*
X191646319Y-63225601D01*
X191617821Y-63226878D01*
X191509898Y-63210576D01*
X191414824Y-63162506D01*
X191337056Y-63085469D01*
X191301252Y-63027872D01*
X191293577Y-63011298D01*
X191287160Y-62992016D01*
X191281892Y-62966896D01*
X191277665Y-62932805D01*
X191274369Y-62886611D01*
X191271896Y-62825184D01*
X191270137Y-62745390D01*
X191268981Y-62644098D01*
X191268321Y-62518177D01*
X191268047Y-62364493D01*
X191268051Y-62179917D01*
X191268121Y-62076262D01*
X191268398Y-61872630D01*
X191268935Y-61701563D01*
X191269824Y-61560053D01*
X191271158Y-61445089D01*
X191273030Y-61353664D01*
X191275531Y-61282767D01*
X191278754Y-61229392D01*
X191282792Y-61190527D01*
X191287737Y-61163165D01*
X191293682Y-61144297D01*
X191296965Y-61137283D01*
X191362779Y-61045456D01*
X191445465Y-60980463D01*
X191539100Y-60942757D01*
X191637760Y-60932790D01*
X191735523Y-60951016D01*
G37*
D15*
%TO.C,SW6*%
X209500000Y-110670000D02*
X210100000Y-110670000D01*
X209800000Y-110970000D02*
X209500000Y-110670000D01*
X210100000Y-110670000D02*
X209800000Y-110970000D01*
X211200000Y-108870000D02*
X211200000Y-120670000D01*
X215300000Y-108870000D02*
X211200000Y-108870000D01*
X215300000Y-120670000D02*
X211200000Y-120670000D01*
X216800000Y-114770000D02*
X217800000Y-114770000D01*
X217300000Y-114270000D02*
X217300000Y-115270000D01*
X219300000Y-108870000D02*
X223400000Y-108870000D01*
X223400000Y-108870000D02*
X223400000Y-111270000D01*
X223400000Y-113470000D02*
X223400000Y-116070000D01*
X223400000Y-118270000D02*
X223400000Y-120670000D01*
X223400000Y-120670000D02*
X219300000Y-120670000D01*
X220300000Y-114770000D02*
G75*
G02*
X214300000Y-114770000I-3000000J0D01*
G01*
X214300000Y-114770000D02*
G75*
G02*
X220300000Y-114770000I3000000J0D01*
G01*
%TO.C,SW3*%
X190855000Y-88485000D02*
X204825000Y-88485000D01*
X190855000Y-102455000D02*
X190855000Y-88485000D01*
X204825000Y-88485000D02*
X204825000Y-102455000D01*
X204825000Y-102455000D02*
X190855000Y-102455000D01*
%TO.C,SW4*%
X210105000Y-88485000D02*
X224075000Y-88485000D01*
X210105000Y-102455000D02*
X210105000Y-88485000D01*
X224075000Y-88485000D02*
X224075000Y-102455000D01*
X224075000Y-102455000D02*
X210105000Y-102455000D01*
D17*
%TO.C,Brd1*%
X235175000Y-82355000D02*
X235175000Y-120355000D01*
X235175000Y-87355000D02*
X247175000Y-87355000D01*
X235175000Y-116855000D02*
X247175000Y-116855000D01*
X235175000Y-120355000D02*
X247175000Y-120355000D01*
X247175000Y-82355000D02*
X235175000Y-82355000D01*
X247175000Y-120355000D02*
X247175000Y-82355000D01*
D15*
%TO.C,D5*%
X193240000Y-56670000D02*
X193240000Y-61670000D01*
X193840000Y-62270000D02*
X193240000Y-61670000D01*
X193840000Y-62270000D02*
X197240000Y-62270000D01*
X197240000Y-56670000D02*
X193240000Y-56670000D01*
X197240000Y-56670000D02*
X197240000Y-62270000D01*
%TO.C,D2*%
X212580000Y-56670000D02*
X212580000Y-61670000D01*
X213180000Y-62270000D02*
X212580000Y-61670000D01*
X213180000Y-62270000D02*
X216580000Y-62270000D01*
X216580000Y-56670000D02*
X212580000Y-56670000D01*
X216580000Y-56670000D02*
X216580000Y-62270000D01*
D18*
%TO.C,U1*%
X233030000Y-72469000D02*
X233030000Y-55324000D01*
X234935000Y-74374000D02*
X248905000Y-74374000D01*
X237425000Y-53419000D02*
X237428728Y-52508728D01*
X237928728Y-52009000D02*
X245924000Y-52009000D01*
X246424000Y-52509000D02*
X246424000Y-53419000D01*
D19*
X248905000Y-53419000D02*
X234935000Y-53419000D01*
D18*
X248905000Y-53419000D02*
X234935000Y-53419000D01*
X250810000Y-72469000D02*
X250810000Y-55324000D01*
X233030000Y-55324000D02*
G75*
G02*
X234935000Y-53419000I1905001J-1D01*
G01*
X234935000Y-74374000D02*
G75*
G02*
X233030000Y-72469000I1J1905001D01*
G01*
X237428728Y-52508728D02*
G75*
G02*
X237928728Y-52009001I500018J-291D01*
G01*
X245924000Y-52009000D02*
G75*
G02*
X246424000Y-52509000I0J-500000D01*
G01*
X248905000Y-53419000D02*
G75*
G02*
X250810000Y-55324000I0J-1905000D01*
G01*
X250810000Y-72469000D02*
G75*
G02*
X248905000Y-74374000I-1905000J0D01*
G01*
D20*
X233222000Y-53660000D02*
G75*
G02*
X232718000Y-53660000I-252000J0D01*
G01*
X232718000Y-53660000D02*
G75*
G02*
X233222000Y-53660000I252000J0D01*
G01*
X234365000Y-54540000D02*
G75*
G02*
X233861000Y-54540000I-252000J0D01*
G01*
X233861000Y-54540000D02*
G75*
G02*
X234365000Y-54540000I252000J0D01*
G01*
D15*
%TO.C,SW1*%
X190855000Y-69195000D02*
X204825000Y-69195000D01*
X190855000Y-83165000D02*
X190855000Y-69195000D01*
X204825000Y-69195000D02*
X204825000Y-83165000D01*
X204825000Y-83165000D02*
X190855000Y-83165000D01*
%TO.C,D1*%
X218360000Y-56670000D02*
X218360000Y-61670000D01*
X218960000Y-62270000D02*
X218360000Y-61670000D01*
X218960000Y-62270000D02*
X222360000Y-62270000D01*
X222360000Y-56670000D02*
X218360000Y-56670000D01*
X222360000Y-56670000D02*
X222360000Y-62270000D01*
%TD*%
M02*
