%TF.GenerationSoftware,KiCad,Pcbnew,9.0.5*%
%TF.CreationDate,2025-12-10T21:52:01+05:30*%
%TF.ProjectId,macropad,6d616372-6f70-4616-942e-6b696361645f,rev?*%
%TF.SameCoordinates,Original*%
%TF.FileFunction,Copper,L2,Bot*%
%TF.FilePolarity,Positive*%
%FSLAX46Y46*%
G04 Gerber Fmt 4.6, Leading zero omitted, Abs format (unit mm)*
G04 Created by KiCad (PCBNEW 9.0.5) date 2025-12-10 21:52:01*
%MOMM*%
%LPD*%
G01*
G04 APERTURE LIST*
%TA.AperFunction,ComponentPad*%
%ADD10C,2.200000*%
%TD*%
%TA.AperFunction,ComponentPad*%
%ADD11R,2.000000X2.000000*%
%TD*%
%TA.AperFunction,ComponentPad*%
%ADD12C,2.000000*%
%TD*%
%TA.AperFunction,ComponentPad*%
%ADD13R,3.200000X2.000000*%
%TD*%
%TA.AperFunction,ComponentPad*%
%ADD14R,1.700000X1.700000*%
%TD*%
%TA.AperFunction,ComponentPad*%
%ADD15O,1.700000X1.700000*%
%TD*%
%TA.AperFunction,ComponentPad*%
%ADD16C,1.524000*%
%TD*%
%TA.AperFunction,Conductor*%
%ADD17C,0.200000*%
%TD*%
G04 APERTURE END LIST*
D10*
%TO.P,SW5,1,1*%
%TO.N,GND*%
X200430000Y-109640000D03*
%TO.P,SW5,2,2*%
%TO.N,Net-(U1-GPIO0{slash}TX)*%
X194080000Y-112180000D03*
%TD*%
%TO.P,SW2,1,1*%
%TO.N,GND*%
X219630000Y-71100000D03*
%TO.P,SW2,2,2*%
%TO.N,Net-(U1-GPIO2{slash}SCK)*%
X213280000Y-73640000D03*
%TD*%
D11*
%TO.P,SW6,A,A*%
%TO.N,Net-(U1-GPIO29{slash}ADC3{slash}A3)*%
X209800000Y-112270000D03*
D12*
%TO.P,SW6,B,B*%
%TO.N,Net-(U1-GPIO28{slash}ADC2{slash}A2)*%
X209800000Y-117270000D03*
%TO.P,SW6,C,C*%
%TO.N,GND*%
X209800000Y-114770000D03*
D13*
%TO.P,SW6,MP*%
%TO.N,N/C*%
X217300000Y-109170000D03*
X217300000Y-120370000D03*
D12*
%TO.P,SW6,S1,S1*%
%TO.N,Net-(U1-GPIO27{slash}ADC1{slash}A1)*%
X224300000Y-117270000D03*
%TO.P,SW6,S2,S2*%
%TO.N,GND*%
X224300000Y-112270000D03*
%TD*%
D10*
%TO.P,SW3,1,1*%
%TO.N,GND*%
X200380000Y-90390000D03*
%TO.P,SW3,2,2*%
%TO.N,Net-(U1-GPIO4{slash}MISO)*%
X194030000Y-92930000D03*
%TD*%
%TO.P,SW4,1,1*%
%TO.N,GND*%
X219630000Y-90390000D03*
%TO.P,SW4,2,2*%
%TO.N,Net-(U1-GPIO3{slash}MOSI)*%
X213280000Y-92930000D03*
%TD*%
D14*
%TO.P,Brd1,1,GND*%
%TO.N,GND*%
X237365000Y-83855000D03*
D15*
%TO.P,Brd1,2,VCC*%
%TO.N,Net-(Brd1-VCC)*%
X239905000Y-83855000D03*
%TO.P,Brd1,3,SCL*%
%TO.N,Net-(Brd1-SCL)*%
X242445000Y-83855000D03*
%TO.P,Brd1,4,SDA*%
%TO.N,Net-(Brd1-SDA)*%
X244985000Y-83855000D03*
%TD*%
D16*
%TO.P,U1,1,GPIO26/ADC0/A0*%
%TO.N,Net-(D1-DIN)*%
X234300000Y-56340000D03*
%TO.P,U1,2,GPIO27/ADC1/A1*%
%TO.N,Net-(U1-GPIO27{slash}ADC1{slash}A1)*%
X234300000Y-58880000D03*
%TO.P,U1,3,GPIO28/ADC2/A2*%
%TO.N,Net-(U1-GPIO28{slash}ADC2{slash}A2)*%
X234300000Y-61420000D03*
%TO.P,U1,4,GPIO29/ADC3/A3*%
%TO.N,Net-(U1-GPIO29{slash}ADC3{slash}A3)*%
X234300000Y-63960000D03*
%TO.P,U1,5,GPIO6/SDA*%
%TO.N,Net-(Brd1-SDA)*%
X234300000Y-66500000D03*
%TO.P,U1,6,GPIO7/SCL*%
%TO.N,Net-(Brd1-SCL)*%
X234300000Y-69040000D03*
%TO.P,U1,7,GPIO0/TX*%
%TO.N,Net-(U1-GPIO0{slash}TX)*%
X234300000Y-71580000D03*
%TO.P,U1,8,GPIO1/RX*%
%TO.N,Net-(U1-GPIO1{slash}RX)*%
X249540000Y-71580000D03*
%TO.P,U1,9,GPIO2/SCK*%
%TO.N,Net-(U1-GPIO2{slash}SCK)*%
X249540000Y-69040000D03*
%TO.P,U1,10,GPIO4/MISO*%
%TO.N,Net-(U1-GPIO4{slash}MISO)*%
X249540000Y-66500000D03*
%TO.P,U1,11,GPIO3/MOSI*%
%TO.N,Net-(U1-GPIO3{slash}MOSI)*%
X249540000Y-63960000D03*
%TO.P,U1,12,3V3*%
%TO.N,Net-(Brd1-VCC)*%
X249540000Y-61420000D03*
%TO.P,U1,13,GND*%
%TO.N,GND*%
X249540000Y-58880000D03*
%TO.P,U1,14,VBUS*%
%TO.N,+5V*%
X249540000Y-56340000D03*
%TD*%
D10*
%TO.P,SW1,1,1*%
%TO.N,GND*%
X200380000Y-71100000D03*
%TO.P,SW1,2,2*%
%TO.N,Net-(U1-GPIO1{slash}RX)*%
X194030000Y-73640000D03*
%TD*%
D17*
%TO.N,GND*%
X200380000Y-90390000D02*
X200430000Y-90440000D01*
X230830000Y-90390000D02*
X237365000Y-83855000D01*
X248076000Y-57416000D02*
X249540000Y-58880000D01*
X233314000Y-57416000D02*
X248076000Y-57416000D01*
X200430000Y-90440000D02*
X200430000Y-109640000D01*
X200380000Y-90390000D02*
X219630000Y-90390000D01*
X219630000Y-71100000D02*
X233314000Y-57416000D01*
X219630000Y-90390000D02*
X230830000Y-90390000D01*
%TO.N,Net-(U1-GPIO0{slash}TX)*%
X210257686Y-78531000D02*
X227349000Y-78531000D01*
X194080000Y-112180000D02*
X194080000Y-95869314D01*
X194080000Y-95869314D02*
X198979000Y-90970314D01*
X227349000Y-78531000D02*
X234300000Y-71580000D01*
X198979000Y-90970314D02*
X198979000Y-89809686D01*
X198979000Y-89809686D02*
X210257686Y-78531000D01*
%TO.N,Net-(U1-GPIO27{slash}ADC1{slash}A1)*%
X224300000Y-117270000D02*
X241056000Y-100514000D01*
X241056000Y-65636000D02*
X234300000Y-58880000D01*
X241056000Y-100514000D02*
X241056000Y-65636000D01*
%TO.N,Net-(U1-GPIO29{slash}ADC3{slash}A3)*%
X230547690Y-73829000D02*
X216116184Y-73829000D01*
X193499686Y-113581000D02*
X194660314Y-113581000D01*
X194409684Y-94972530D02*
X193961000Y-94972530D01*
X216116184Y-73829000D02*
X211815184Y-78130000D01*
X198578000Y-90804214D02*
X194409684Y-94972530D01*
X193961000Y-94972530D02*
X193257470Y-94269000D01*
X191559000Y-94972530D02*
X191559000Y-111640314D01*
X234740310Y-70517000D02*
X233859690Y-70517000D01*
X193257470Y-94269000D02*
X192262530Y-94269000D01*
X210091586Y-78130000D02*
X198578000Y-89643586D01*
X195971314Y-112270000D02*
X209800000Y-112270000D01*
X198578000Y-89643586D02*
X198578000Y-90804214D01*
X192262530Y-94269000D02*
X191559000Y-94972530D01*
X211815184Y-78130000D02*
X210091586Y-78130000D01*
X233859690Y-70517000D02*
X230547690Y-73829000D01*
X194660314Y-113581000D02*
X195971314Y-112270000D01*
X234300000Y-63960000D02*
X235363000Y-65023000D01*
X191559000Y-111640314D02*
X193499686Y-113581000D01*
X235363000Y-65023000D02*
X235363000Y-69894310D01*
X235363000Y-69894310D02*
X234740310Y-70517000D01*
%TO.N,Net-(U1-GPIO28{slash}ADC2{slash}A2)*%
X211101000Y-112167000D02*
X211101000Y-115969000D01*
X238516000Y-65636000D02*
X238516000Y-85006000D01*
X238262000Y-85006000D02*
X211101000Y-112167000D01*
X234300000Y-61420000D02*
X238516000Y-65636000D01*
X211101000Y-115969000D02*
X209800000Y-117270000D01*
X238516000Y-85006000D02*
X238262000Y-85006000D01*
%TO.N,Net-(Brd1-SDA)*%
X233859690Y-57817000D02*
X234740310Y-57817000D01*
X244985000Y-68061690D02*
X244985000Y-83855000D01*
X232836000Y-58840690D02*
X233859690Y-57817000D01*
X232836000Y-66977570D02*
X232836000Y-58840690D01*
X234740310Y-57817000D02*
X244985000Y-68061690D01*
X233120429Y-67261999D02*
X232836000Y-66977570D01*
X234300000Y-66500000D02*
X233538001Y-67261999D01*
X233538001Y-67261999D02*
X233120429Y-67261999D01*
%TD*%
M02*
