%TF.GenerationSoftware,KiCad,Pcbnew,9.0.5*%
%TF.CreationDate,2025-12-10T21:52:01+05:30*%
%TF.ProjectId,macropad,6d616372-6f70-4616-942e-6b696361645f,rev?*%
%TF.SameCoordinates,Original*%
%TF.FileFunction,Copper,L1,Top*%
%TF.FilePolarity,Positive*%
%FSLAX46Y46*%
G04 Gerber Fmt 4.6, Leading zero omitted, Abs format (unit mm)*
G04 Created by KiCad (PCBNEW 9.0.5) date 2025-12-10 21:52:01*
%MOMM*%
%LPD*%
G01*
G04 APERTURE LIST*
G04 Aperture macros list*
%AMRoundRect*
0 Rectangle with rounded corners*
0 $1 Rounding radius*
0 $2 $3 $4 $5 $6 $7 $8 $9 X,Y pos of 4 corners*
0 Add a 4 corners polygon primitive as box body*
4,1,4,$2,$3,$4,$5,$6,$7,$8,$9,$2,$3,0*
0 Add four circle primitives for the rounded corners*
1,1,$1+$1,$2,$3*
1,1,$1+$1,$4,$5*
1,1,$1+$1,$6,$7*
1,1,$1+$1,$8,$9*
0 Add four rect primitives between the rounded corners*
20,1,$1+$1,$2,$3,$4,$5,0*
20,1,$1+$1,$4,$5,$6,$7,0*
20,1,$1+$1,$6,$7,$8,$9,0*
20,1,$1+$1,$8,$9,$2,$3,0*%
G04 Aperture macros list end*
%TA.AperFunction,ComponentPad*%
%ADD10C,2.200000*%
%TD*%
%TA.AperFunction,SMDPad,CuDef*%
%ADD11R,0.850000X1.600000*%
%TD*%
%TA.AperFunction,ComponentPad*%
%ADD12R,2.000000X2.000000*%
%TD*%
%TA.AperFunction,ComponentPad*%
%ADD13C,2.000000*%
%TD*%
%TA.AperFunction,ComponentPad*%
%ADD14R,3.200000X2.000000*%
%TD*%
%TA.AperFunction,ComponentPad*%
%ADD15R,1.700000X1.700000*%
%TD*%
%TA.AperFunction,ComponentPad*%
%ADD16O,1.700000X1.700000*%
%TD*%
%TA.AperFunction,SMDPad,CuDef*%
%ADD17RoundRect,0.152400X1.063600X0.609600X-1.063600X0.609600X-1.063600X-0.609600X1.063600X-0.609600X0*%
%TD*%
%TA.AperFunction,ComponentPad*%
%ADD18C,1.524000*%
%TD*%
%TA.AperFunction,SMDPad,CuDef*%
%ADD19RoundRect,0.152400X-1.063600X-0.609600X1.063600X-0.609600X1.063600X0.609600X-1.063600X0.609600X0*%
%TD*%
%TA.AperFunction,Conductor*%
%ADD20C,0.200000*%
%TD*%
G04 APERTURE END LIST*
D10*
%TO.P,SW5,1,1*%
%TO.N,GND*%
X200430000Y-109640000D03*
%TO.P,SW5,2,2*%
%TO.N,Net-(U1-GPIO0{slash}TX)*%
X194080000Y-112180000D03*
%TD*%
D11*
%TO.P,D3,1,DOUT*%
%TO.N,Net-(D3-DOUT)*%
X209675000Y-57720000D03*
%TO.P,D3,2,VSS*%
%TO.N,GND*%
X207925000Y-57720000D03*
%TO.P,D3,3,DIN*%
%TO.N,Net-(D2-DOUT)*%
X207925000Y-61220000D03*
%TO.P,D3,4,VDD*%
%TO.N,+5V*%
X209675000Y-61220000D03*
%TD*%
%TO.P,D4,1,DOUT*%
%TO.N,Net-(D4-DOUT)*%
X202895000Y-57720000D03*
%TO.P,D4,2,VSS*%
%TO.N,GND*%
X201145000Y-57720000D03*
%TO.P,D4,3,DIN*%
%TO.N,Net-(D3-DOUT)*%
X201145000Y-61220000D03*
%TO.P,D4,4,VDD*%
%TO.N,+5V*%
X202895000Y-61220000D03*
%TD*%
D10*
%TO.P,SW2,1,1*%
%TO.N,GND*%
X219630000Y-71100000D03*
%TO.P,SW2,2,2*%
%TO.N,Net-(U1-GPIO2{slash}SCK)*%
X213280000Y-73640000D03*
%TD*%
D12*
%TO.P,SW6,A,A*%
%TO.N,Net-(U1-GPIO29{slash}ADC3{slash}A3)*%
X209800000Y-112270000D03*
D13*
%TO.P,SW6,B,B*%
%TO.N,Net-(U1-GPIO28{slash}ADC2{slash}A2)*%
X209800000Y-117270000D03*
%TO.P,SW6,C,C*%
%TO.N,GND*%
X209800000Y-114770000D03*
D14*
%TO.P,SW6,MP*%
%TO.N,N/C*%
X217300000Y-109170000D03*
X217300000Y-120370000D03*
D13*
%TO.P,SW6,S1,S1*%
%TO.N,Net-(U1-GPIO27{slash}ADC1{slash}A1)*%
X224300000Y-117270000D03*
%TO.P,SW6,S2,S2*%
%TO.N,GND*%
X224300000Y-112270000D03*
%TD*%
D10*
%TO.P,SW3,1,1*%
%TO.N,GND*%
X200380000Y-90390000D03*
%TO.P,SW3,2,2*%
%TO.N,Net-(U1-GPIO4{slash}MISO)*%
X194030000Y-92930000D03*
%TD*%
%TO.P,SW4,1,1*%
%TO.N,GND*%
X219630000Y-90390000D03*
%TO.P,SW4,2,2*%
%TO.N,Net-(U1-GPIO3{slash}MOSI)*%
X213280000Y-92930000D03*
%TD*%
D15*
%TO.P,Brd1,1,GND*%
%TO.N,GND*%
X237365000Y-83855000D03*
D16*
%TO.P,Brd1,2,VCC*%
%TO.N,Net-(Brd1-VCC)*%
X239905000Y-83855000D03*
%TO.P,Brd1,3,SCL*%
%TO.N,Net-(Brd1-SCL)*%
X242445000Y-83855000D03*
%TO.P,Brd1,4,SDA*%
%TO.N,Net-(Brd1-SDA)*%
X244985000Y-83855000D03*
%TD*%
D11*
%TO.P,D5,1,DOUT*%
%TO.N,unconnected-(D5-DOUT-Pad1)*%
X196115000Y-57720000D03*
%TO.P,D5,2,VSS*%
%TO.N,GND*%
X194365000Y-57720000D03*
%TO.P,D5,3,DIN*%
%TO.N,Net-(D4-DOUT)*%
X194365000Y-61220000D03*
%TO.P,D5,4,VDD*%
%TO.N,+5V*%
X196115000Y-61220000D03*
%TD*%
%TO.P,D2,1,DOUT*%
%TO.N,Net-(D2-DOUT)*%
X215455000Y-57720000D03*
%TO.P,D2,2,VSS*%
%TO.N,GND*%
X213705000Y-57720000D03*
%TO.P,D2,3,DIN*%
%TO.N,Net-(D1-DOUT)*%
X213705000Y-61220000D03*
%TO.P,D2,4,VDD*%
%TO.N,+5V*%
X215455000Y-61220000D03*
%TD*%
D17*
%TO.P,U1,1,GPIO26/ADC0/A0*%
%TO.N,Net-(D1-DIN)*%
X233465000Y-56340000D03*
D18*
X234300000Y-56340000D03*
D17*
%TO.P,U1,2,GPIO27/ADC1/A1*%
%TO.N,Net-(U1-GPIO27{slash}ADC1{slash}A1)*%
X233465000Y-58880000D03*
D18*
X234300000Y-58880000D03*
D17*
%TO.P,U1,3,GPIO28/ADC2/A2*%
%TO.N,Net-(U1-GPIO28{slash}ADC2{slash}A2)*%
X233465000Y-61420000D03*
D18*
X234300000Y-61420000D03*
D17*
%TO.P,U1,4,GPIO29/ADC3/A3*%
%TO.N,Net-(U1-GPIO29{slash}ADC3{slash}A3)*%
X233465000Y-63960000D03*
D18*
X234300000Y-63960000D03*
D17*
%TO.P,U1,5,GPIO6/SDA*%
%TO.N,Net-(Brd1-SDA)*%
X233465000Y-66500000D03*
D18*
X234300000Y-66500000D03*
D17*
%TO.P,U1,6,GPIO7/SCL*%
%TO.N,Net-(Brd1-SCL)*%
X233465000Y-69040000D03*
D18*
X234300000Y-69040000D03*
D17*
%TO.P,U1,7,GPIO0/TX*%
%TO.N,Net-(U1-GPIO0{slash}TX)*%
X233465000Y-71580000D03*
D18*
X234300000Y-71580000D03*
%TO.P,U1,8,GPIO1/RX*%
%TO.N,Net-(U1-GPIO1{slash}RX)*%
X249540000Y-71580000D03*
D19*
X250375000Y-71580000D03*
D18*
%TO.P,U1,9,GPIO2/SCK*%
%TO.N,Net-(U1-GPIO2{slash}SCK)*%
X249540000Y-69040000D03*
D19*
X250375000Y-69040000D03*
D18*
%TO.P,U1,10,GPIO4/MISO*%
%TO.N,Net-(U1-GPIO4{slash}MISO)*%
X249540000Y-66500000D03*
D19*
X250375000Y-66500000D03*
D18*
%TO.P,U1,11,GPIO3/MOSI*%
%TO.N,Net-(U1-GPIO3{slash}MOSI)*%
X249540000Y-63960000D03*
D19*
X250375000Y-63960000D03*
D18*
%TO.P,U1,12,3V3*%
%TO.N,Net-(Brd1-VCC)*%
X249540000Y-61420000D03*
D19*
X250375000Y-61420000D03*
D18*
%TO.P,U1,13,GND*%
%TO.N,GND*%
X249540000Y-58880000D03*
D19*
X250375000Y-58880000D03*
D18*
%TO.P,U1,14,VBUS*%
%TO.N,+5V*%
X249540000Y-56340000D03*
D19*
X250375000Y-56340000D03*
%TD*%
D10*
%TO.P,SW1,1,1*%
%TO.N,GND*%
X200380000Y-71100000D03*
%TO.P,SW1,2,2*%
%TO.N,Net-(U1-GPIO1{slash}RX)*%
X194030000Y-73640000D03*
%TD*%
D11*
%TO.P,D1,1,DOUT*%
%TO.N,Net-(D1-DOUT)*%
X221235000Y-57720000D03*
%TO.P,D1,2,VSS*%
%TO.N,GND*%
X219485000Y-57720000D03*
%TO.P,D1,3,DIN*%
%TO.N,Net-(D1-DIN)*%
X219485000Y-61220000D03*
%TO.P,D1,4,VDD*%
%TO.N,+5V*%
X221235000Y-61220000D03*
%TD*%
D20*
%TO.N,GND*%
X212300000Y-112270000D02*
X224300000Y-112270000D01*
X200430000Y-109640000D02*
X204670000Y-109640000D01*
X202246000Y-56619000D02*
X206824000Y-56619000D01*
X202440000Y-71100000D02*
X202505000Y-71035000D01*
X219630000Y-71100000D02*
X202570000Y-71100000D01*
X201145000Y-57720000D02*
X202246000Y-56619000D01*
X200044000Y-56619000D02*
X201145000Y-57720000D01*
X237365000Y-83855000D02*
X237365000Y-71055000D01*
X237365000Y-71055000D02*
X249540000Y-58880000D01*
X209800000Y-114770000D02*
X212300000Y-112270000D01*
X214806000Y-56619000D02*
X218384000Y-56619000D01*
X204670000Y-109640000D02*
X209800000Y-114770000D01*
X194365000Y-57720000D02*
X195466000Y-56619000D01*
X212604000Y-56619000D02*
X213705000Y-57720000D01*
X195466000Y-56619000D02*
X200044000Y-56619000D01*
X207925000Y-57720000D02*
X209026000Y-56619000D01*
X200380000Y-71100000D02*
X202440000Y-71100000D01*
X218384000Y-56619000D02*
X219485000Y-57720000D01*
X202505000Y-71035000D02*
X193639000Y-62169000D01*
X206824000Y-56619000D02*
X207925000Y-57720000D01*
X209026000Y-56619000D02*
X212604000Y-56619000D01*
X193639000Y-62169000D02*
X193639000Y-58446000D01*
X193639000Y-58446000D02*
X194365000Y-57720000D01*
X213705000Y-57720000D02*
X214806000Y-56619000D01*
X202570000Y-71100000D02*
X202505000Y-71035000D01*
%TO.N,Net-(D1-DOUT)*%
X219595000Y-59360000D02*
X221235000Y-57720000D01*
X215565000Y-59360000D02*
X219595000Y-59360000D01*
X213705000Y-61220000D02*
X215565000Y-59360000D01*
%TO.N,+5V*%
X197216000Y-62321000D02*
X201794000Y-62321000D01*
X210776000Y-62321000D02*
X214354000Y-62321000D01*
X224638000Y-57817000D02*
X248063000Y-57817000D01*
X202895000Y-61220000D02*
X203996000Y-62321000D01*
X201794000Y-62321000D02*
X202895000Y-61220000D01*
X203996000Y-62321000D02*
X208574000Y-62321000D01*
X248063000Y-57817000D02*
X249540000Y-56340000D01*
X208574000Y-62321000D02*
X209675000Y-61220000D01*
X220134000Y-62321000D02*
X221235000Y-61220000D01*
X196115000Y-61220000D02*
X197216000Y-62321000D01*
X209675000Y-61220000D02*
X210776000Y-62321000D01*
X214354000Y-62321000D02*
X215455000Y-61220000D01*
X216556000Y-62321000D02*
X220134000Y-62321000D01*
X215455000Y-61220000D02*
X216556000Y-62321000D01*
X221235000Y-61220000D02*
X224638000Y-57817000D01*
%TO.N,Net-(D1-DIN)*%
X219485000Y-61220000D02*
X224365000Y-56340000D01*
X224365000Y-56340000D02*
X234300000Y-56340000D01*
%TO.N,Net-(Brd1-SCL)*%
X235813000Y-70553000D02*
X235813000Y-85172100D01*
X234300000Y-69040000D02*
X235813000Y-70553000D01*
X235813000Y-85172100D02*
X236047900Y-85407000D01*
X245060760Y-85407000D02*
X246136000Y-84331760D01*
X236047900Y-85407000D02*
X245060760Y-85407000D01*
X246136000Y-84331760D02*
X246136000Y-83378240D01*
X243596000Y-82704000D02*
X242445000Y-83855000D01*
X246136000Y-83378240D02*
X245461760Y-82704000D01*
X245461760Y-82704000D02*
X243596000Y-82704000D01*
%TO.N,Net-(U1-GPIO1{slash}RX)*%
X249540000Y-71580000D02*
X249540000Y-82061960D01*
X194030000Y-83371530D02*
X194030000Y-73640000D01*
X192629000Y-93583816D02*
X192629000Y-84772530D01*
X249540000Y-82061960D02*
X233780960Y-97821000D01*
X233780960Y-97821000D02*
X196866184Y-97821000D01*
X196866184Y-97821000D02*
X192629000Y-93583816D01*
X192629000Y-84772530D02*
X194030000Y-83371530D01*
%TO.N,Net-(U1-GPIO2{slash}SCK)*%
X193238000Y-57020000D02*
X194981000Y-55277000D01*
X213280000Y-73640000D02*
X196011314Y-73640000D01*
X252293000Y-55939374D02*
X252293000Y-67364630D01*
X193238000Y-70866686D02*
X193238000Y-57020000D01*
X194981000Y-55277000D02*
X251630626Y-55277000D01*
X250617630Y-69040000D02*
X249540000Y-69040000D01*
X252293000Y-67364630D02*
X250617630Y-69040000D01*
X196011314Y-73640000D02*
X193238000Y-70866686D01*
X251630626Y-55277000D02*
X252293000Y-55939374D01*
%TO.N,Net-(U1-GPIO4{slash}MISO)*%
X251630626Y-57817000D02*
X249099690Y-57817000D01*
X203721530Y-92930000D02*
X194030000Y-92930000D01*
X241479690Y-65437000D02*
X231214530Y-65437000D01*
X249099690Y-57817000D02*
X241479690Y-65437000D01*
X251892000Y-65225630D02*
X251892000Y-58078374D01*
X249540000Y-66500000D02*
X250617630Y-66500000D01*
X251892000Y-58078374D02*
X251630626Y-57817000D01*
X250617630Y-66500000D02*
X251892000Y-65225630D01*
X231214530Y-65437000D02*
X203721530Y-92930000D01*
%TO.N,Net-(U1-GPIO3{slash}MOSI)*%
X246537000Y-66963000D02*
X246537000Y-84497860D01*
X246537000Y-84497860D02*
X238104860Y-92930000D01*
X249540000Y-63960000D02*
X246537000Y-66963000D01*
X238104860Y-92930000D02*
X213280000Y-92930000D01*
%TO.N,Net-(Brd1-VCC)*%
X239905000Y-71055000D02*
X249540000Y-61420000D01*
X239905000Y-83855000D02*
X239905000Y-71055000D01*
%TO.N,Net-(D2-DOUT)*%
X215455000Y-57720000D02*
X214354000Y-58821000D01*
X214354000Y-58821000D02*
X210324000Y-58821000D01*
X210324000Y-58821000D02*
X207925000Y-61220000D01*
%TO.N,Net-(D3-DOUT)*%
X203544000Y-58821000D02*
X208574000Y-58821000D01*
X208574000Y-58821000D02*
X209675000Y-57720000D01*
X201145000Y-61220000D02*
X203544000Y-58821000D01*
%TO.N,Net-(D4-DOUT)*%
X196139000Y-58821000D02*
X194560000Y-60400000D01*
X202895000Y-57720000D02*
X201794000Y-58821000D01*
X201794000Y-58821000D02*
X196139000Y-58821000D01*
%TD*%
M02*
