%TF.GenerationSoftware,KiCad,Pcbnew,9.0.5*%
%TF.CreationDate,2025-12-10T21:52:02+05:30*%
%TF.ProjectId,macropad,6d616372-6f70-4616-942e-6b696361645f,rev?*%
%TF.SameCoordinates,Original*%
%TF.FileFunction,Soldermask,Top*%
%TF.FilePolarity,Negative*%
%FSLAX46Y46*%
G04 Gerber Fmt 4.6, Leading zero omitted, Abs format (unit mm)*
G04 Created by KiCad (PCBNEW 9.0.5) date 2025-12-10 21:52:02*
%MOMM*%
%LPD*%
G01*
G04 APERTURE LIST*
G04 Aperture macros list*
%AMRoundRect*
0 Rectangle with rounded corners*
0 $1 Rounding radius*
0 $2 $3 $4 $5 $6 $7 $8 $9 X,Y pos of 4 corners*
0 Add a 4 corners polygon primitive as box body*
4,1,4,$2,$3,$4,$5,$6,$7,$8,$9,$2,$3,0*
0 Add four circle primitives for the rounded corners*
1,1,$1+$1,$2,$3*
1,1,$1+$1,$4,$5*
1,1,$1+$1,$6,$7*
1,1,$1+$1,$8,$9*
0 Add four rect primitives between the rounded corners*
20,1,$1+$1,$2,$3,$4,$5,0*
20,1,$1+$1,$4,$5,$6,$7,0*
20,1,$1+$1,$6,$7,$8,$9,0*
20,1,$1+$1,$8,$9,$2,$3,0*%
G04 Aperture macros list end*
%ADD10C,1.700000*%
%ADD11C,4.000000*%
%ADD12C,2.200000*%
%ADD13R,0.850000X1.600000*%
%ADD14R,2.000000X2.000000*%
%ADD15C,2.000000*%
%ADD16R,3.200000X2.000000*%
%ADD17C,3.200000*%
%ADD18R,1.700000X1.700000*%
%ADD19O,1.700000X1.700000*%
%ADD20RoundRect,0.152400X1.063600X0.609600X-1.063600X0.609600X-1.063600X-0.609600X1.063600X-0.609600X0*%
%ADD21C,1.524000*%
%ADD22RoundRect,0.152400X-1.063600X-0.609600X1.063600X-0.609600X1.063600X0.609600X-1.063600X0.609600X0*%
G04 APERTURE END LIST*
D10*
%TO.C,SW5*%
X192810000Y-114720000D03*
D11*
X197890000Y-114720000D03*
D10*
X202970000Y-114720000D03*
D12*
X200430000Y-109640000D03*
X194080000Y-112180000D03*
%TD*%
D13*
%TO.C,D3*%
X209675000Y-57720000D03*
X207925000Y-57720000D03*
X207925000Y-61220000D03*
X209675000Y-61220000D03*
%TD*%
%TO.C,D4*%
X202895000Y-57720000D03*
X201145000Y-57720000D03*
X201145000Y-61220000D03*
X202895000Y-61220000D03*
%TD*%
D10*
%TO.C,SW2*%
X212010000Y-76180000D03*
D11*
X217090000Y-76180000D03*
D10*
X222170000Y-76180000D03*
D12*
X219630000Y-71100000D03*
X213280000Y-73640000D03*
%TD*%
D14*
%TO.C,SW6*%
X209800000Y-112270000D03*
D15*
X209800000Y-117270000D03*
X209800000Y-114770000D03*
D16*
X217300000Y-109170000D03*
X217300000Y-120370000D03*
D15*
X224300000Y-117270000D03*
X224300000Y-112270000D03*
%TD*%
D10*
%TO.C,SW3*%
X192760000Y-95470000D03*
D11*
X197840000Y-95470000D03*
D10*
X202920000Y-95470000D03*
D12*
X200380000Y-90390000D03*
X194030000Y-92930000D03*
%TD*%
D10*
%TO.C,SW4*%
X212010000Y-95470000D03*
D11*
X217090000Y-95470000D03*
D10*
X222170000Y-95470000D03*
D12*
X219630000Y-90390000D03*
X213280000Y-92930000D03*
%TD*%
D17*
%TO.C,REF\u002A\u002A*%
X183750000Y-56250000D03*
%TD*%
%TO.C,REF\u002A\u002A*%
X257500000Y-123750000D03*
%TD*%
%TO.C,REF\u002A\u002A*%
X257500000Y-56250000D03*
%TD*%
D18*
%TO.C,Brd1*%
X237365000Y-83855000D03*
D19*
X239905000Y-83855000D03*
X242445000Y-83855000D03*
X244985000Y-83855000D03*
%TD*%
D13*
%TO.C,D5*%
X196115000Y-57720000D03*
X194365000Y-57720000D03*
X194365000Y-61220000D03*
X196115000Y-61220000D03*
%TD*%
D17*
%TO.C,REF\u002A\u002A*%
X183750000Y-123750000D03*
%TD*%
D13*
%TO.C,D2*%
X215455000Y-57720000D03*
X213705000Y-57720000D03*
X213705000Y-61220000D03*
X215455000Y-61220000D03*
%TD*%
D20*
%TO.C,U1*%
X233465000Y-56340000D03*
D21*
X234300000Y-56340000D03*
D20*
X233465000Y-58880000D03*
D21*
X234300000Y-58880000D03*
D20*
X233465000Y-61420000D03*
D21*
X234300000Y-61420000D03*
D20*
X233465000Y-63960000D03*
D21*
X234300000Y-63960000D03*
D20*
X233465000Y-66500000D03*
D21*
X234300000Y-66500000D03*
D20*
X233465000Y-69040000D03*
D21*
X234300000Y-69040000D03*
D20*
X233465000Y-71580000D03*
D21*
X234300000Y-71580000D03*
X249540000Y-71580000D03*
D22*
X250375000Y-71580000D03*
D21*
X249540000Y-69040000D03*
D22*
X250375000Y-69040000D03*
D21*
X249540000Y-66500000D03*
D22*
X250375000Y-66500000D03*
D21*
X249540000Y-63960000D03*
D22*
X250375000Y-63960000D03*
D21*
X249540000Y-61420000D03*
D22*
X250375000Y-61420000D03*
D21*
X249540000Y-58880000D03*
D22*
X250375000Y-58880000D03*
D21*
X249540000Y-56340000D03*
D22*
X250375000Y-56340000D03*
%TD*%
D10*
%TO.C,SW1*%
X192760000Y-76180000D03*
D11*
X197840000Y-76180000D03*
D10*
X202920000Y-76180000D03*
D12*
X200380000Y-71100000D03*
X194030000Y-73640000D03*
%TD*%
D13*
%TO.C,D1*%
X221235000Y-57720000D03*
X219485000Y-57720000D03*
X219485000Y-61220000D03*
X221235000Y-61220000D03*
%TD*%
M02*
