M48
; DRILL file {KiCad 9.0.5} date 2025-12-10T21:52:09+0530
; FORMAT={-:-/ absolute / metric / decimal}
; #@! TF.CreationDate,2025-12-10T21:52:09+05:30
; #@! TF.GenerationSoftware,Kicad,Pcbnew,9.0.5
; #@! TF.FileFunction,Plated,1,2,PTH
FMAT,2
METRIC
; #@! TA.AperFunction,Plated,PTH,ComponentDrill
T1C0.889
; #@! TA.AperFunction,Plated,PTH,ComponentDrill
T2C1.000
; #@! TA.AperFunction,Plated,PTH,ComponentDrill
T3C1.500
%
G90
G05
T1
X234.3Y-56.34
X234.3Y-58.88
X234.3Y-61.42
X234.3Y-63.96
X234.3Y-66.5
X234.3Y-69.04
X234.3Y-71.58
X249.54Y-56.34
X249.54Y-58.88
X249.54Y-61.42
X249.54Y-63.96
X249.54Y-66.5
X249.54Y-69.04
X249.54Y-71.58
T2
X209.8Y-112.27
X209.8Y-114.77
X209.8Y-117.27
X224.3Y-112.27
X224.3Y-117.27
X237.365Y-83.855
X239.905Y-83.855
X242.445Y-83.855
X244.985Y-83.855
T3
X194.03Y-73.64
X194.03Y-92.93
X194.08Y-112.18
X200.38Y-71.1
X200.38Y-90.39
X200.43Y-109.64
X213.28Y-73.64
X213.28Y-92.93
X219.63Y-71.1
X219.63Y-90.39
T3
G00X216.65Y-109.17
M15
G01X217.95Y-109.17
M16
G05
G00X216.65Y-120.37
M15
G01X217.95Y-120.37
M16
G05
M30
